<?xml version="1.0" encoding="utf-8"?>
<!-- Generator: Adobe Illustrator 27.5.0, SVG Export Plug-In . SVG Version: 6.00 Build 0)  -->
<svg version="1.1" id="Layer_1" xmlns="http://www.w3.org/2000/svg" xmlns:xlink="http://www.w3.org/1999/xlink" x="0px" y="0px"
	 viewBox="0 0 4000 4000" style="enable-background:new 0 0 4000 4000;" xml:space="preserve">
<g>
	<g>
		<rect style="fill:#FFE5BB;" width="4000" height="4000"/>
	</g>
	<g>
		<g>
			<g>
				<g>
					<g>
						<g>
							<polygon style="fill:#EDA743;" points="2048.893,2763.895 2042.266,3148.23 1902.179,3129.708 1903.744,2742.056 							"/>
						</g>
						<g>
							<path style="fill:#CE751D;" d="M1960.875,2897.795c0,0,37.699,19.37,85.196,29.785l2.822-163.686l-145.148-21.838
								l-0.697,172.752C1934.295,2912.012,1960.875,2897.795,1960.875,2897.795z"/>
						</g>
						<g>
							<polygon style="fill:#512717;" points="2061.878,3171.001 1882.107,3147.227 1883.743,2741.973 1923.743,2742.139 
								1922.254,3112.188 2022.659,3125.464 2028.899,2763.55 2068.889,2764.243 							"/>
						</g>
					</g>
					<g>
						<g>
							<path style="fill:#FF4545;" d="M1846.614,3154.1c0,0-5.762-35.906-1.696-44.478c5.12-10.794,216.717-9.522,235.304,4.174
								c4.587,3.38-6.652,59.478-6.652,59.478s17.595,63.652,17.478,102.522c-0.113,37.587-7.353,41.704-52.026,45.628
								c-50.757,4.459-283.192-0.237-306.67-7.02c-10.156-2.934-23.992-9.401-25.304-39.913
								C1704.766,3221.404,1733.331,3161.143,1846.614,3154.1z"/>
						</g>
						<g>
							<path style="fill:#D81A1A;" d="M2039.023,3321.423c44.673-3.924,51.913-8.042,52.026-45.628
								c0.117-38.87-17.478-102.521-17.478-102.521s2.407-12.023,4.54-25.271c-45.03,30.08-225.592,8.295-228.105,7.793
								c-2.609-0.521,69.862,19.844,84.652,56.996c11.31,28.41-175.186,33.171-218.775,11.041
								c-7.171,16.329-9.557,33.851-8.834,50.659c1.312,30.511,15.149,36.979,25.304,39.913
								C1755.831,3321.187,1988.266,3325.882,2039.023,3321.423z"/>
						</g>
						<g style="opacity:0.4;">
							<path style="fill:#FFFFFF;" d="M1888.614,3142.23c2.609-0.521,119.218-6.782,186.522,5.772
								c1.018,0.19,1.987,0.318,2.911,0.392c2.501-15.473,4.661-32.768,2.176-34.599c-18.587-13.696-230.185-14.968-235.304-4.174
								c-4.066,8.572,1.695,44.478,1.695,44.478c-113.282,7.043-141.848,67.304-139.565,120.392
								c1.312,30.511,15.149,36.979,25.304,39.913c1.73,0.5,4.622,0.988,8.465,1.462
								c-27.351-166.909,193.448-134.375,193.448-134.375l-44.217-15.261C1890.049,3166.23,1886.005,3142.751,1888.614,3142.23z"/>
						</g>
						<g>
							<path style="fill:#FFFFFF;" d="M1707.063,3263.195c-0.164,3.787-0.175,7.56-0.014,11.296
								c1.312,30.511,15.149,36.979,25.304,39.913c23.478,6.783,255.913,11.479,306.67,7.02
								c44.673-3.924,51.913-8.042,52.026-45.628c0.013-4.314-0.202-8.944-0.577-13.747
								C1954.65,3265.427,1707.222,3263.197,1707.063,3263.195z"/>
						</g>
						<g>
							<path style="fill:#CFDCE2;" d="M2090.471,3262.048c-1.657,0.041-3.344,0.081-5.034,0.121
								c-2.948,22.054-14.336,25.462-51.109,28.692c-50.757,4.459-283.192-0.237-306.67-7.02
								c-6.885-1.989-15.453-5.628-20.672-17.259c-0.049,2.648-0.05,5.289,0.063,7.909c1.312,30.511,15.149,36.979,25.304,39.913
								c23.478,6.783,255.913,11.479,306.67,7.02c44.673-3.924,51.913-8.042,52.026-45.628
								C2091.062,3271.481,2090.846,3266.852,2090.471,3262.048z"/>
						</g>
						<g>
							<path style="fill:#512717;" d="M1881.38,3279.907c-93.345,0-173.062-0.703-174.468-0.713l0.293-32.002
								c2.461,0.024,248.843,2.202,382.871-1.143l0.801,31.992C2032.483,3279.497,1952.928,3279.907,1881.38,3279.907z"/>
						</g>
						<g>
							<path style="fill:#512717;" d="M1963.665,3343.057c-88.164,0-216.162-3.457-236.865-9.438
								c-25.01-7.227-38.379-26.831-39.731-58.267c-1.255-29.238,5.483-122.085,137.095-139.199
								c-2.202-24.795,1.348-32.28,2.686-35.107c4.639-9.771,14.761-12.319,18.086-13.154c27.353-6.88,220.513-9.829,247.153,9.8
								c9.512,7.012,13.999,13.657,2.007,74.907c4.151,15.85,17.061,67.979,16.953,103.257
								c-0.161,53.481-22.627,61.309-70.273,65.493C2027.6,3342.505,1998.792,3343.057,1963.665,3343.057z M1863.567,3125.151
								c0.342,7.07,1.362,16.836,2.793,25.786l3.481,21.753l-21.987,1.372c-103.12,6.411-122.622,57.686-120.825,99.57
								c0.806,18.647,6.152,20.195,10.874,21.558c20.278,5.269,244.292,11.138,299.37,6.313c6.987-0.615,28.262-2.485,31.626-5.596
								c0.459-0.64,2.099-4.116,2.148-20.171c0.107-35.645-16.587-96.528-16.753-97.139l-1.265-4.585l0.933-4.668
								c2.754-13.77,5.488-30.171,6.714-40.801C2022.088,3121.768,1901.263,3120.84,1863.567,3125.151z M2070.076,3130.942
								L2070.076,3130.942L2070.076,3130.942z M1854.222,3126.812C1854.222,3126.812,1854.226,3126.807,1854.222,3126.812
								L1854.222,3126.812z"/>
						</g>
						<g>
							<g>
								<line style="fill:#EDA743;" x1="1846.614" y1="3154.1" x2="1909.483" y2="3174.448"/>
							</g>
							<g>
								<polygon style="fill:#512717;" points="1852.773,3135.072 1909.482,3174.447 1840.454,3173.127 1852.773,3135.072 								
									"/>
							</g>
						</g>
					</g>
				</g>
				<g>
					<g>
						<g>
							<polygon style="fill:#EDA743;" points="2185.255,2763.895 2191.882,3148.23 2331.969,3129.708 2330.403,2742.056 							"/>
						</g>
						<g>
							<path style="fill:#CE751D;" d="M2331.091,2912.326l-0.688-170.27l-145.148,21.838l2.845,165.022
								C2218.839,2929.955,2276.705,2929.021,2331.091,2912.326z"/>
						</g>
						<g>
							<polygon style="fill:#512717;" points="2172.273,3171.001 2165.262,2764.243 2205.252,2763.55 2211.492,3125.464 
								2311.897,3112.188 2310.403,2742.139 2350.403,2741.973 2352.044,3147.227 							"/>
						</g>
					</g>
					<g>
						<g>
							<path style="fill:#FF4545;" d="M2387.534,3154.1c0,0,5.762-35.906,1.696-44.478c-5.12-10.794-216.717-9.522-235.304,4.174
								c-4.587,3.38,6.652,59.478,6.652,59.478s-17.595,63.652-17.478,102.522c0.113,37.587,7.353,41.704,52.026,45.628
								c50.757,4.459,283.192-0.237,306.67-7.02c10.156-2.934,23.992-9.401,25.304-39.913
								C2529.382,3221.404,2500.816,3161.143,2387.534,3154.1z"/>
						</g>
						<g>
							<path style="fill:#D81A1A;" d="M2195.125,3321.423c-44.673-3.924-51.913-8.042-52.025-45.628
								c-0.117-38.87,17.478-102.521,17.478-102.521s-2.407-12.023-4.54-25.271c45.03,30.08,225.593,8.295,228.105,7.793
								c2.609-0.521-69.862,19.844-84.652,56.996c-11.31,28.41,175.186,33.171,218.774,11.041
								c7.171,16.329,9.557,33.851,8.834,50.659c-1.312,30.511-15.149,36.979-25.304,39.913
								C2478.316,3321.187,2245.882,3325.882,2195.125,3321.423z"/>
						</g>
						<g style="opacity:0.4;">
							<path style="fill:#FFFFFF;" d="M2345.534,3142.23c-2.608-0.521-119.217-6.782-186.521,5.772
								c-1.018,0.19-1.987,0.318-2.911,0.392c-2.501-15.473-4.661-32.768-2.176-34.599c18.587-13.696,230.185-14.968,235.304-4.174
								c4.066,8.572-1.696,44.478-1.696,44.478c113.283,7.043,141.848,67.304,139.565,120.392
								c-1.312,30.511-15.149,36.979-25.304,39.913c-1.73,0.5-4.622,0.988-8.465,1.462
								c27.351-166.909-193.448-134.375-193.448-134.375l44.218-15.261C2344.099,3166.23,2348.143,3142.751,2345.534,3142.23z"/>
						</g>
						<g>
							<path style="fill:#FFFFFF;" d="M2527.085,3263.195c0.164,3.787,0.175,7.56,0.014,11.296
								c-1.312,30.511-15.149,36.979-25.304,39.913c-23.478,6.783-255.913,11.479-306.67,7.02
								c-44.673-3.924-51.913-8.042-52.025-45.628c-0.013-4.314,0.202-8.944,0.577-13.747
								C2279.498,3265.427,2526.926,3263.197,2527.085,3263.195z"/>
						</g>
						<g>
							<path style="fill:#CFDCE2;" d="M2143.677,3262.048c1.657,0.041,3.344,0.081,5.034,0.121
								c2.948,22.054,14.336,25.462,51.11,28.692c50.757,4.459,283.191-0.237,306.67-7.02c6.885-1.989,15.453-5.628,20.672-17.259
								c0.05,2.648,0.05,5.289-0.063,7.909c-1.312,30.511-15.149,36.979-25.304,39.913c-23.478,6.783-255.913,11.479-306.67,7.02
								c-44.673-3.924-51.913-8.042-52.025-45.628C2143.086,3271.481,2143.302,3266.852,2143.677,3262.048z"/>
						</g>
						<g>
							<path style="fill:#512717;" d="M2352.767,3279.907c-71.553,0-151.094-0.41-209.497-1.865l0.801-31.992
								c134.033,3.345,380.396,1.167,382.871,1.143l0.293,32.002C2525.828,3279.204,2446.096,3279.907,2352.767,3279.907z"/>
						</g>
						<g>
							<path style="fill:#512717;" d="M2270.486,3343.057c-35.136,0-63.936-0.552-77.109-1.709
								c-47.651-4.185-70.117-12.012-70.278-65.493c-0.107-35.273,12.803-87.407,16.958-103.257
								c-12.002-61.25-7.51-67.896,2.002-74.902c26.631-19.624,219.79-16.68,247.148-9.81c3.325,0.835,13.452,3.384,18.091,13.159
								c1.348,2.837,4.893,10.313,2.686,35.107c131.621,17.114,138.354,109.961,137.094,139.199
								c-1.348,31.436-14.717,51.04-39.731,58.267C2486.648,3339.6,2358.65,3343.057,2270.486,3343.057z M2173.475,3128.545
								c1.226,10.63,3.96,27.031,6.714,40.801l0.938,4.663l-1.27,4.59c-0.166,0.61-16.865,61.499-16.758,97.139
								c0.049,16.055,1.689,19.531,2.188,20.215c3.325,3.066,24.6,4.937,31.592,5.552c55.054,4.834,279.087-1.04,299.434-6.333
								c4.653-1.343,10.005-2.891,10.806-21.538c1.802-41.885-17.695-93.159-120.825-99.57l-21.988-1.367l3.481-21.758
								c1.431-8.95,2.451-18.716,2.798-25.786C2332.884,3120.845,2212.068,3121.768,2173.475,3128.545z M2164.07,3130.942
								C2164.07,3130.942,2164.075,3130.938,2164.07,3130.942L2164.07,3130.942z M2379.929,3126.812L2379.929,3126.812
								L2379.929,3126.812z M2370.438,3116.211L2370.438,3116.211L2370.438,3116.211z"/>
						</g>
						<g>
							<g>
								<line style="fill:#EDA743;" x1="2387.534" y1="3154.1" x2="2324.664" y2="3174.448"/>
							</g>
							<g>
								<polygon style="fill:#512717;" points="2393.691,3173.127 2324.663,3174.447 2381.375,3135.072 2393.691,3173.127 								
									"/>
							</g>
						</g>
					</g>
					<g>
						<g>
							<line style="fill:#EDA743;" x1="2387.534" y1="3154.1" x2="2313.662" y2="3174.362"/>
						</g>
						<g>
							<polygon style="fill:#512717;" points="2392.825,3173.387 2313.662,3174.362 2382.244,3134.812 2392.825,3173.387 							"/>
						</g>
					</g>
				</g>
			</g>
			<g>
				<g>
					<g>
						<path style="fill:#C17625;" d="M612.44,2557.556c-17.178-1.164-95.322,12.852-105.065,26.804
							c-33.065,47.348-84.676,377.418-78.065,393.522c10.174,24.783,406.006,195.172,432,197.739
							c21.13,2.087,146.348-23.478,162-32.87c15.652-9.391,82.198-398.038,75.13-408.522
							C1074.962,2699.404,673.092,2561.665,612.44,2557.556z"/>
					</g>
					<g>
						<path style="fill:#A05512;" d="M714.701,2672.409c163.163,58.213,327.662,75.695,255.289-0.704
							c-107.369-42.006-253.34-90.404-323.779-107.683C591.216,2574.354,565.85,2619.301,714.701,2672.409z"/>
					</g>
					<g>
						<path style="fill:#D88635;" d="M965.135,2795.745l91.826-18.08c0,0-25.435,218.739-77.695,225.662
							C917.156,3011.555,965.135,2795.745,965.135,2795.745z"/>
					</g>
					<g>
						<path style="fill:#EFA460;" d="M989.428,2820.563l44.577-8.777c0,0-12.347,106.186-37.717,109.547
							C966.137,2925.327,989.428,2820.563,989.428,2820.563z"/>
					</g>
					<g>
						<path style="fill:#D88635;" d="M530.005,2677.494c7.304-15.785,12.522-17.872,172.639,41.783
							c104.704,39.01,187.695,66.211,178.047,111.335s-170.65,108.809-257.217,69.261S515.954,2707.859,530.005,2677.494z"/>
					</g>
					<g>
						<path style="fill:#EFA460;" d="M607.53,2734.686c2.81-6.181,20.574-7.654,83.082,15.635
							c40.876,15.229,74.179,30.497,69.508,43.464c-4.83,13.409-60.735,29.672-97.468,17.247
							C622.563,2797.472,600.161,2750.898,607.53,2734.686z"/>
					</g>
					<g>
						<path style="fill:#A05512;" d="M904.696,2900.041c0,0-307.072,181.945-413.447-91.177
							c-11.707,66.48-19.476,123.618-21.801,150.034c65.756,40.121,353.494,164.457,396.605,176.801
							c20.648-0.91,95.66-15.684,127.207-24.563c5.511-19.208,13.449-56.215,21.913-99.785
							C953.869,3083.998,904.696,3021.016,904.696,2900.041z"/>
					</g>
					<g>
						<path style="fill:#512717;" d="M863.196,3195.684c-1.475,0-2.764-0.054-3.853-0.161
							c-21.968-2.168-172.1-67.266-228.091-92.168c-210.474-93.594-216.714-108.794-220.444-117.876
							c-7.871-19.175,15.591-155,22.969-196.167c14.79-82.539,36.724-187.08,57.202-216.401
							c17.7-25.342,110.62-36.094,122.817-35.308c35.884,2.437,161.099,42.095,262.261,77.92
							c145.107,51.382,225.508,87.563,238.965,107.524c5.088,7.549,8.447,12.534-13.774,148.188
							c-12.949,79.058-28.247,160.806-39.922,213.345c-14.37,64.697-19.39,70.322-27.725,75.322
							C1015.349,3170.85,895.432,3195.679,863.196,3195.684z M863.616,3155.742c17.388,1.182,119.727-19.233,145.566-28.579
							c17.065-44.688,67.07-333.213,69.707-383.945c-17.114-12.095-84.79-43.672-221.426-91.841
							c-112.563-39.688-220.786-72.134-246.377-73.862h-0.005c-13.77-1.055-75.591,11.104-88.101,19.487
							c-27.153,43.032-73.603,323.408-74.326,372.114C491.292,3000.757,825.735,3148.13,863.616,3155.742z M522.288,2597.505
							L522.288,2597.505L522.288,2597.505z"/>
					</g>
					<g>
						<path style="fill:#512717;" d="M521.658,2603.534c73.352,11.741,141.409,39.54,211.856,61.181
							c69.705,22.925,139.174,46.545,208.115,71.668c0,0-8.801-0.559-8.801-0.559c51.886-9.97,103.971-21.926,157.192-19.213
							c3.99,0.177,9.002,1.531,12.874,2.251c0,0-8.909,30.735-8.909,30.735l-3.459-0.619c-23.589-2.985-47.625,1.007-71.372,3.856
							c-26.489,3.815-53.336,8.667-79.475,14.249l-4.346,0.973l-4.458-1.532c-69.275-24.19-138.003-49.876-206.48-76.252
							C656.153,2662.432,585.883,2640.881,521.658,2603.534L521.658,2603.534z"/>
					</g>
					<g>
						<path style="fill:#512717;" d="M877.268,3176.787l-31.914-2.334c10.405-142.017,72.656-415.015,75.303-426.567l31.191,7.139
							C951.209,2757.832,887.493,3037.212,877.268,3176.787z"/>
					</g>
					<g>
						<path style="fill:#FFDC2E;" d="M1045.545,2703.263c-73.887,4.88-146.764,29.924-150.727,33.407
							c-4.932,4.335-49.943,152.516-84.769,420.837l-46.201-18.802c9.81-106.563,70.462-398.215,85.37-418.304
							c14.908-20.09,89.831-34.432,139.703-41.194L1045.545,2703.263z M506.379,3023.313
							c25.843-240.952,68.235-387.3,71.496-391.735c3.431-4.666,91.435-28.043,91.435-28.043l-38.79-18.109
							c-46.776,2.196-91.126,19.178-92.93,23.793c-37.846,96.837-74.637,391.684-74.637,391.684L506.379,3023.313z"/>
					</g>
					<g>
						<g>
							<path style="fill:#F4AE00;" d="M935.819,2722.685c13.902-3.844,30.504-7.883,48.566-11.336
								c5.589-6.821,4.023-16.875-6.551-30.567c-42.323,6.256-96.691,17.257-119.912,32.073
								C887.816,2718.833,914.521,2722.275,935.819,2722.685z"/>
						</g>
						<g>
							<path style="fill:#F4AE00;" d="M630.52,2585.425c-8.745,0.411-17.405,1.339-25.719,2.605
								c-3.722,8.644-1.448,19.091,9.58,30.823c25.491-7.498,54.928-15.319,54.928-15.319L630.52,2585.425z"/>
						</g>
					</g>
					<g>
						<g>
							<path style="fill:#F4AE00;" d="M832.522,2933.058c-2.526,0.928-5.093,1.851-7.713,2.766
								c-1.731,0.605-3.482,1.199-5.252,1.796c-2.447,0.825-4.928,1.639-7.445,2.443c-2.038,0.651-4.091,1.289-6.172,1.924
								c-2.473,0.753-4.974,1.493-7.505,2.218c-1.155,0.332-2.261,0.688-3.428,1.013c-10.636,54.727-20.245,109.637-26.211,152.331
								c17.109,7.183,32.908,13.695,46.746,19.265c10.231-73.205,21.079-136.479,31.373-189.255
								c-0.688,0.276-1.443,0.552-2.14,0.828c-2.653,1.05-5.352,2.102-8.137,3.151
								C835.284,2932.047,833.903,2932.55,832.522,2933.058z"/>
						</g>
						<g>
							<path style="fill:#F4AE00;" d="M469.449,2958.898c9.626,5.874,24.036,13.562,41.713,22.429
								c4.637-38.518,9.646-74.294,14.765-107.114c-12.973-17.995-24.613-39.428-34.528-64.777
								c-9.773,57.167-17.768,112.36-22.768,148.688C468.908,2958.385,469.17,2958.637,469.449,2958.898z"/>
						</g>
					</g>
					<g>
						<path style="fill:#512717;" d="M819.944,3174.492l-68.862-28.027l0.815-8.857c9.087-98.726,69.18-399.414,87.681-424.355
							c17.666-23.804,90.083-38.115,147.729-45.933l3.267-0.444l106.035,45.039l-50.273,3.32
							c-65.801,4.351-128.779,24.668-142.637,30.386c-9.292,23.013-50.103,169.604-81.753,413.433L819.944,3174.492z
							 M776.673,3130.972l23.506,9.565c31.797-237.759,75.527-403.042,86.714-412.881c6.118-5.371,55.361-21.997,112.183-31.094
							l-11.802-5.015c-78.286,10.864-120.889,25.854-128.418,36.006C846.795,2746.479,789.109,3014.038,776.673,3130.972z"/>
					</g>
					<g>
						<path style="fill:#512717;" d="M516.443,3042.007l-66.435-34.277l1.035-8.311c1.514-12.1,37.417-297.451,75.371-394.57
							c6.025-15.43,66.968-29.692,103.545-31.411l2.954-0.137l71.426,33.345l-31.948,8.486
							c-34.741,9.229-73.584,20.42-84.956,24.932c-7.598,23.057-45.322,162.627-69.121,384.526L516.443,3042.007z M475.926,2994.092
							l20.435,10.547c25.068-222.417,65.068-370.957,71.846-380.171c2.422-3.291,5.117-6.958,66.304-23.936l-6.343-2.964
							c-38.374,2.319-72.046,14.414-80.508,18.916C514.68,2704.385,482.156,2946.167,475.926,2994.092z M546.121,2617.412
							L546.121,2617.412L546.121,2617.412z"/>
					</g>
				</g>
				<g>
					<g>
						<path style="fill:#FFDC2E;" d="M981.831,2556.056c0,14.217-40.304,130.826-40.304,130.826
							c-28.565,14.217-67.304,5.478-81-19.957c19.957-65.152,33.042-90.056,25.304-93.652
							c-9.808-4.558-159.487-59.991-165.903-56.869c-5.803,2.824-14.964,51.04-24.288,93.098c0,0-8.853,14.25-43.875,7.532
							c-17.411-3.339-24.196-14.282-24.196-14.282c7.272-44.218,18.301-99.516,28.565-122.609
							c19.044-42.844,58.565-53.739,125.739-32.348C903.605,2442.229,1043.199,2423.155,981.831,2556.056z"/>
					</g>
					<g>
						<path style="fill:#F4AE00;" d="M928.545,2445.905c-63.714,6.565-203.855,25.068-229.497,33.456
							c-13.956,4.565-21.261,41.665-34.826,114.13l-35.394,1.741c-0.429,2.533-0.851,5.049-1.258,7.52
							c0,0,6.785,10.943,24.195,14.283c35.022,6.717,43.875-7.533,43.875-7.533c9.324-42.058,18.485-90.274,24.288-93.098
							c6.416-3.122,156.095,52.311,165.903,56.869c7.738,3.596-5.348,28.5-25.304,93.652c13.696,25.435,52.435,34.174,81,19.957
							c0,0,1.52-4.399,3.954-11.545c-32.957,3.409-46.701-13.629-46.701-13.629l29.358-96.289c0,0,11.88-24.842,54.5-11.173
							c12.551-27.732,16.221-48.748,13.04-64.583c-7.945-11.377-15.507-21.842-21.497-30.012
							C962.467,2452.423,946.792,2448.192,928.545,2445.905z"/>
					</g>
					<g style="opacity:0.7;">
						<path style="fill:#FFFFFF;" d="M781.875,2447.795c-67.174-21.391-106.696-10.496-125.739,32.348
							c-10.264,23.093-21.293,78.392-28.565,122.608c0,0,5.68,9.098,19.901,13.229c15.297-74.948,22.536-138.646,49.49-150.677
							c36.732-16.396,264.913-9.627,271.565,16.926c5.417,21.622-38.805,160.571-55.417,211.431
							c9.751-0.186,19.571-2.376,28.417-6.779c0,0,40.304-116.609,40.304-130.826
							C1043.199,2423.155,903.605,2442.229,781.875,2447.795z"/>
					</g>
					<g>
						<path style="fill:#512717;" d="M911.834,2709.717c-27.178,0-53.374-12.881-65.396-35.205l-3.169-5.884l1.958-6.392
							c6.812-22.236,12.729-39.536,17.485-53.438c3.081-9.019,6.24-18.247,7.988-24.399
							c-27.778-10.762-111.665-41.353-141.548-49.941c-3.677,12.646-8.716,36.089-12.642,54.336
							c-1.729,8.047-3.486,16.216-5.249,24.17l-0.591,2.666l-1.44,2.314c-2.446,3.94-16.87,23.174-60.478,14.805
							c-23.623-4.531-33.711-19.834-34.78-21.567l-3.164-5.103l0.977-5.923c4.678-28.447,16.939-97.725,29.732-126.514
							c32.944-74.121,112.524-51.421,142.471-41.958c8.965-0.425,18.022-0.918,27.075-1.406
							c83.33-4.526,162.041-8.774,191.201,34.209c15.527,22.881,13.936,54.302-4.873,96.006
							c-3.457,21.875-26.543,90.532-40.742,131.616l-2.139,6.187l-5.854,2.915C937.029,2706.992,924.329,2709.717,911.834,2709.717z
							 M878.079,2664.331c10.644,12.256,32.417,16.885,50.64,10.601c18.037-52.529,36.348-109.897,37.124-119.287v-3.516l1.46-2.783
							c14.478-31.348,17.329-53.853,8.481-66.895c-19.009-28.013-95.503-23.877-162.993-20.22
							c-10.103,0.547-20.205,1.094-30.186,1.548l-2.861,0.132l-2.725-0.869c-73.94-23.535-95.205-1.284-106.265,23.599
							c-7.456,16.777-17.1,57.827-26.055,110.679c2.227,1.509,5.518,3.13,10.078,4.004c15.493,2.969,23.203,0.942,26.396-0.522
							c1.362-6.211,2.715-12.51,4.053-18.73c13.569-63.12,16.851-74.775,27.705-80.054c7.222-3.521,10.22-4.961,94.038,24.868
							c39.082,13.906,79.736,29.15,85.601,31.875c6.982,3.247,14.404,10.972,10.2,29.355c-1.689,7.373-5.083,17.3-9.785,31.04
							C888.846,2631.27,883.802,2646.011,878.079,2664.331z"/>
					</g>
				</g>
				<g>
					<g>
						<g>
							<path style="fill:#EDA743;" d="M1215.049,2134.752c-128.348-30.13-249.261-3.522-324,114.261l103.696,59.87
								c33.261-59.478,106.044-96.261,216.783-59.87L1215.049,2134.752z"/>
						</g>
						<g style="opacity:0.6;">
							<path style="fill:#FFFFFF;" d="M1214.105,2165.367l0.944-30.615c-128.348-30.13-249.261-3.521-324,114.261l28.767,16.609
								C991.491,2167.946,1099.044,2142.936,1214.105,2165.367z"/>
						</g>
						<g>
							<path style="fill:#CE751D;" d="M1211.527,2249.013l1.135-36.811c-101.025-44.19-205.373-10.861-261.042,71.782l43.124,24.898
								C1028.005,2249.404,1100.788,2212.622,1211.527,2249.013z"/>
						</g>
						<g>
							<path style="fill:#512717;" d="M1002.303,2336.338l-139.316-80.43l11.177-17.612
								c72.695-114.556,195.371-158.247,345.454-123.018l-9.141,38.945c-89.097-20.928-209.834-21.479-290.747,88.257l68.457,39.521
								c46.831-64.854,131.035-84.375,229.585-51.987l-12.49,37.998c-88.447-29.063-158.828-10.615-193.081,50.63L1002.303,2336.338
								z"/>
						</g>
					</g>
					<g>
						<g>
							<path style="fill:#FFFFFF;" d="M1005.309,2395.36c31.891,3.913,47.524-9.144,51.261-23.478
								c4.37-16.761-0.771-31.645-10.565-41.478c-23.478-23.573-167.283-103.696-198-111.652
								c-15.783-4.088-37.073-5.207-52.174,13.043c-13.761,16.63-9.522,34.957,0,48.522c0,0-65.217,45.391-92.609,117.091
								c-18.214,47.678-13.696,90.691,11.478,105.691c0,0,12.783,54.389,65.739,44.348c0,0,3.913,37.978,39.913,46.435
								c41.458,9.739,65.478-20.609,65.478-20.609s21.652-50.348,43.37-76.369c21.815,7.239,29.38,8.805,39.815,20.25
								s12.815,38.902,12.815,38.902C1029.831,2526.578,1025.918,2428.23,1005.309,2395.36z"/>
						</g>
						<g>
							<path style="fill:#CFDCE2;" d="M1056.57,2371.882c0.813-3.121,1.197-6.147,1.382-9.117
								c-43.438,0.294-183.293-45.98-267.71-122.158c-6.504,14.06-2.275,28.507,5.589,39.709c0,0-9.845,6.867-23.473,19.431
								c47.951,45.509,183.355,110.623,245.94,138.624c-2.258-17.751-6.88-33.268-12.989-43.011
								C1037.201,2399.274,1052.834,2386.216,1056.57,2371.882z"/>
						</g>
						<g>
							<path style="fill:#CFDCE2;" d="M947.136,2441.013c-16.124,0.059-58.435,80.013-107.66,73.806
								c-46.298-5.837-43.644-49.138-43.644-49.138c-31.984,34.057-71.609,30.636-64.648-32.852c0,0-29.261,23.311-22.7-47.891
								c-1.869,4.064-3.636,8.217-5.261,12.47c-18.214,47.678-13.696,90.691,11.478,105.691c0,0,12.783,54.389,65.739,44.348
								c0,0,3.913,37.978,39.913,46.435c41.458,9.739,65.478-20.609,65.478-20.609s21.652-50.348,43.37-76.369
								c21.815,7.239,29.38,8.805,39.815,20.25c10.435,11.444,12.815,38.902,12.815,38.902
								c10.768-6.613,18.905-16.709,24.846-28.737C1008.941,2476.624,962.123,2440.958,947.136,2441.013z"/>
						</g>
						<g>
							<path style="fill:#512717;" d="M836.712,2611.841c-6.25,0.005-12.925-0.718-20.02-2.383
								c-30.039-7.056-42.949-29.307-48.379-44.746c-39.56,0.435-60.156-29.966-67.407-51.714
								c-27.363-21.475-32.607-69.014-12.632-121.299c21.987-57.559,66.069-98.623,86.987-115.728
								c-7.729-18.857-4.961-38.418,8.247-54.375c11.211-13.555,32.212-27.729,68.506-18.335
								c31.943,8.276,178.852,89.268,205.327,115.854c14.648,14.707,20.151,35.942,14.712,56.807
								c-3.94,15.107-17.407,31.069-42.949,35.142c7.886,27.568,9.087,64.39,1.982,94.712
								c-6.943,29.653-21.084,51.753-40.884,63.911l-22.08,13.56l-2.236-25.811c-0.83-9.268-4.316-24.702-8.696-29.502
								c-5.718-6.274-9.043-7.915-22.178-12.275c-17.759,25.254-34.297,63.501-34.482,63.931l-0.835,1.948l-1.318,1.665
								C897.312,2584.546,875.193,2611.841,836.712,2611.841z M794.573,2528.481l1.787,17.324c0.117,0.972,3.477,26.821,27.651,32.5
								c26.572,6.24,43.633-9.014,48.174-13.76c4.741-10.684,24.326-53.447,44.732-77.896l6.982-8.364l16.523,5.464
								c18.189,5.952,28.208,9.229,40.415,22.622c4.268,4.683,7.485,10.723,9.907,16.958c4.526-8.203,7.393-17.183,9.185-24.849
								c8.198-35,2.271-77.954-8.174-94.624l-17.847-28.467l33.35,4.092c18.394,2.236,31.367-2.202,33.828-11.631
								c2.588-9.927,0.249-19.463-6.421-26.157c-20.391-20.474-161.167-99.81-190.674-107.456c-21.733-5.62-30.85,1.733-35.83,7.759
								c-7.065,8.535-6.807,18.335,0.767,29.126l9.229,13.149l-13.184,9.18c-0.596,0.415-61.587,43.652-86.807,109.663
								c-15.039,39.38-13.052,75.645,4.722,86.24l5.835,3.477l1.553,6.606c1.611,6.499,11.587,39.053,47.183,32.29L794.573,2528.481
								z"/>
						</g>
						<g>
							<path style="fill:#512717;" d="M897.432,2515.736c13.63-22.473,29.351-42.395,46.313-61.941
								c-7.077,23.637-13.233,48.347-16.111,72.52C927.634,2526.315,897.432,2515.736,897.432,2515.736L897.432,2515.736z"/>
						</g>
						<g>
							<polygon style="fill:#512717;" points="803.918,2266.511 884.004,2331.969 787.744,2294.122 803.918,2266.511 							"/>
						</g>
						<g>
							<polygon style="fill:#512717;" points="938.43,2360.925 1012.634,2381.135 997.986,2409.586 938.43,2360.925 							"/>
						</g>
						<g>
							<path style="fill:#512717;" d="M733.745,2427.509c-6.383,24.843-8.43,50.76-3.045,75.591c0,0-31.999,0-31.999,0
								C703.939,2475.469,716.883,2449.417,733.745,2427.509L733.745,2427.509z"/>
						</g>
						<g>
							<path style="fill:#512717;" d="M799.727,2452.029c-3.76,31.637-6.531,65.174-3.313,96.353c0,0-31.945-1.868-31.945-1.868
								C772.196,2512.777,785.247,2482.653,799.727,2452.029L799.727,2452.029z"/>
						</g>
					</g>
				</g>
			</g>
			<g>
				<g>
					<g>
						<path style="fill:#EDA743;" d="M2901.831,2006.404c0,0,133.043-22.435,228.521-134.087l91.304,67.043
							c0,0-96.261,141.391-319.826,191.739V2006.404z"/>
					</g>
					<g style="opacity:0.6;">
						<path style="fill:#FFFFFF;" d="M2919.44,2036.916c0,0,133.043-22.435,228.522-134.087l65.074,47.783
							c5.75-7.067,8.622-11.251,8.622-11.251l-91.304-67.044c-95.478,111.652-228.522,134.087-228.522,134.087V2131.1
							c5.976-1.346,11.814-2.788,17.609-4.259V2036.916z"/>
					</g>
					<g>
						<path style="fill:#CE751D;" d="M3221.657,1939.361l-39.756-29.192c-91.125,116.838-215.937,149.021-280.07,158.252v62.679
							C3125.396,2080.751,3221.657,1939.361,3221.657,1939.361z"/>
					</g>
					<g>
						<path style="fill:#512717;" d="M2906.223,2150.61l-8.789-39.023c169.78-38.232,264.136-131.704,295.654-168.391
							l-59.956-44.023c-97.593,103.921-222.49,126.028-227.979,126.956l-6.68-39.438c1.26-0.217,127.348-22.91,216.68-127.371
							l12.07-14.114l121.826,89.458l-10.859,15.952C3234.08,1956.655,3134.861,2099.121,2906.223,2150.61z"/>
					</g>
				</g>
				<g>
					<g>
						<g>
							<path style="fill:#FFFFFF;" d="M3125.396,1790.013c-25.826-41.478-27.136-118.951-27.391-127.174
								c-0.783-25.174-22.304-59.478-20.25-77.283c1.84-15.948,24.197-33.164,38.837-31.891c19.5,1.696,40.63,21.522,51.261,48.13
								c9.638,24.124,15.652,30.717,15.652,30.717s33.065-39.326,46.37-75.326c13.304-36,25.627-96.112,55.957-115.826
								c20.869-13.565,68.72-2.093,70.435,30.913c1.565,30.13-20.87,89.609-16.435,101.739c2.584,7.069,11.421,10.866,16.467,10.565
								c9.848-0.587,62.791-67.142,88.402-76.696c24.652-9.196,71.218,7.304,64.174,56.739
								c-4.672,32.791-60.079,84.636-61.644,90.506c-1.565,5.87,4.448,13.125,8.427,14.364c3.192,0.994,58.703-25.252,81.196-26.413
								c28.678-1.48,50.283,28.957,35.115,63.154c-16.482,37.161-95.18,63.237-103.397,70.868
								c-8.218,7.63-48.76,114.123-138.967,143.279C3240.973,1907.913,3175.057,1861.213,3125.396,1790.013z"/>
						</g>
						<g>
							<path style="fill:#CFDCE2;" d="M3382.483,1837.361c-18.652-27.131,31.696-114.261,31.696-114.261
								c-111.582-10.268-180.522-99-180.522-99s-17.872,23.681-44.87,39c0,0,21.987,105.046-23.478,87.652
								c-34.435-13.174-36.602-77.3-39.913-102.391c-4.048-30.671-26.202-58.178-37.858-80.781
								c-5.246,5.417-9.069,11.786-9.783,17.976c-2.054,17.805,19.467,52.108,20.25,77.283c0.256,8.223,1.565,85.696,27.391,127.174
								c49.66,71.2,115.576,117.9,204.207,130.366c38.448-12.427,67.845-38.904,89.591-65.786
								C3405.381,1853.582,3390.718,1849.337,3382.483,1837.361z"/>
						</g>
						<g>
							<path style="fill:#512717;" d="M3331.375,1940.825l-4.556-0.642c-89.072-12.527-162.363-59.204-217.827-138.73l-0.571-0.867
								c-24.243-38.928-29.438-102.034-30.381-136.187l-0.024-0.942c-0.288-9.255-5.39-22.888-9.893-34.915
								c-6.079-16.233-11.816-31.567-10.234-45.281c2.979-25.847,34.551-51.826,60.435-49.521
								c27.192,2.366,54.561,26.733,68.106,60.635c0.073,0.188,0.146,0.376,0.225,0.562c8.877-12.988,18.799-29.355,24.463-44.683
								c2.744-7.429,5.527-16.208,8.476-25.505c12.017-37.898,25.64-80.852,55.342-100.159
								c17.949-11.667,46.289-11.775,68.921-0.242c19.551,9.963,31.358,27.053,32.383,46.887
								c0.972,18.66-5.117,43.862-10.488,66.099c-1.279,5.295-2.769,11.472-4.004,17.085c3.799-3.779,7.817-7.878,11.313-11.448
								c26.87-27.419,47.232-47.329,64.649-53.826c21.264-7.93,48.247-3.015,67.177,12.219
								c19.209,15.459,27.656,38.923,23.789,66.077c-3.052,21.433-19.316,44.827-38.565,67.874
								c17.896-6.624,34.009-11.606,45.713-12.209c20.078-1.05,38.823,8.284,50.264,24.912c12.783,18.589,14.341,43.381,4.16,66.326
								c-15.166,34.194-64.766,57.305-94.404,71.111c-4.643,2.163-10.195,4.751-13.174,6.321c-1.24,2.124-3.105,5.554-4.805,8.677
								c-18.374,33.777-61.401,112.871-142.109,138.958L3331.375,1940.825z M3142.117,1779.021
								c48.501,69.338,109.263,108.916,185.615,120.862c62.876-22.732,99.258-89.619,114.995-118.545
								c5.689-10.452,8.281-15.222,12.236-18.896c4.307-3.997,10.112-6.78,23.984-13.245c21.309-9.927,65.649-30.583,74.736-51.072
								c4.566-10.291,4.361-20.293-0.557-27.441c-3.55-5.168-9.111-7.991-15.244-7.632c-11.323,0.583-40.313,12.102-55.888,18.291
								c-20.195,8.022-24.404,9.697-32.281,7.246c-13.994-4.36-26.289-21.797-21.811-38.608c1.66-6.218,5.259-10.278,15.942-22.324
								c12.778-14.409,42.705-48.149,45.229-65.857c1.85-12.986-1.27-22.834-9.268-29.27c-8.711-7.014-21.148-8.506-28.115-5.908
								c-10.415,3.884-35.234,29.211-50.063,44.346c-23.438,23.916-32.207,32.866-44.146,33.577
								c-13.433,0.74-30.654-7.842-36.436-23.665c-4.014-10.981-0.942-24.932,5.82-52.937c4.497-18.616,10.093-41.785,9.424-54.634
								c-0.279-5.396-3.843-9.878-10.601-13.32c-11.055-5.632-24.316-4.88-28.96-1.858c-17.7,11.504-29.517,48.767-39.009,78.708
								c-3.096,9.756-6.016,18.97-9.087,27.28c-14.351,38.823-48.384,79.551-49.824,81.265l-14.692,17.476l-15.39-16.868
								c-2.544-2.791-9.536-11.96-19.448-36.78c-8.452-21.157-24.141-34.727-34.424-35.623c-5.083,0.117-16.469,9.453-17.236,14.28
								c-0.401,4.304,4.634,17.751,7.964,26.65c5.586,14.924,11.919,31.843,12.412,47.7l0.029,1.079
								C3119.407,1713.457,3128.406,1756.648,3142.117,1779.021z"/>
						</g>
						<g>
							<path style="fill:#512717;" d="M3192.7,1667.404c35.881-5.875,65.842,25.036,77.104,56.35
								c1.656,5.077,2.93,10.354,4.185,15.508c0.335,3.401,1.459,12.425,1.64,15.741c-0.298,8.595-0.464,17.401-2.83,25.686
								c-0.744,3.331-1.643,6.621-2.646,9.844c-2.026-6.654-3.293-13.092-4.912-19.349c-1.998-5.897-3.311-12.414-5.754-18.126
								c0,0-3.215-8.64-3.215-8.64c-1.406-2.858-4.486-9.469-5.84-12.219C3235.938,1705.398,3214.307,1690.007,3192.7,1667.404
								L3192.7,1667.404z"/>
						</g>
						<g>
							<path style="fill:#512717;" d="M3287.788,1784.535c6.403-30.17,34.844-52.222,64.648-56.063
								c10.059-1.394,20.633,0.081,30.047,4.41c-9.026,5.691-17.034,9.188-24.619,13.666
								C3334.494,1758.866,3312.313,1773.517,3287.788,1784.535L3287.788,1784.535z"/>
						</g>
					</g>
					<g>
						<g>
							<path style="fill:#FFFFFF;" d="M3217.93,1838.764c-40.999-27.764-80.428-52.609-95.664-58.534
								c-9.921-3.858-23.674,0.587-35.218,13.696c-11.543,13.109-20.83,30.801-5.87,48.717
								c23.772,28.467,180.551,128.374,196.594,135.417s33.363,8.126,51.493-10.787c13.097-13.662,12.855-32.907,7.043-40.304
								c-6.497-8.269-43.779-36.33-85.902-65.834L3217.93,1838.764z"/>
						</g>
						<g>
							<path style="fill:#CFDCE2;" d="M3336.31,1926.969c-2.554-3.251-9.917-9.591-20.411-17.846
								c-0.239,0.263-0.449,0.536-0.697,0.794c-18.13,18.913-35.45,17.83-51.493,10.787
								c-13.966-6.132-134.551-82.619-181.232-121.106c-9.058,12.32-14.198,27.596-1.297,43.045
								c23.772,28.468,180.551,128.374,196.594,135.417c16.043,7.044,33.363,8.127,51.493-10.786
								C3342.363,1953.611,3342.122,1934.367,3336.31,1926.969z"/>
						</g>
						<g>
							<path style="fill:#512717;" d="M3217.93,1838.765c-25.681-10.064-50.326-22.239-75.059-33.798
								c-8.517-3.858-17.562-8.379-26.011-11.021c-0.769,0.011-1.746,0.055-3.105,0.391c-7.327,1.897-15.261,10.904-19.162,17.868
								c-4.185,7.898-5.398,11.149-0.553,18.176c2.402,3.198,8.657,8.72,11.783,11.509
								c53.869,44.965,114.245,83.346,175.298,118.057c12.971,7.421,24.661,6.644,35.015-3.93
								c5.801-4.788,8.608-12.861,7.883-19.801c0.059,0.132,0.415,0.325,0.076-0.065c-0.149-0.223-0.293-0.53-0.811-1.094
								c-23.696-24.785-49.997-46.883-72.875-73.922c26.301,10.088,50.646,23.008,74.194,38.024
								c7.572,5.114,15.892,10.29,22.73,17.279c15.683,18.594,9.043,47.827-6.746,63.865
								c-35.344,35.947-68.347,17.767-103.347-6.249c-23.101-15.047-45.828-30.345-68.653-45.647
								c-31.453-21.482-64.726-41.789-93.821-67.114c-11.064-9.874-19.825-24.315-18.837-39.902
								c2.127-27.432,26.856-54.458,54.125-57.575c17.143-1.883,32.17,11.221,45.296,20.113
								C3177.805,1800.519,3198.717,1818.458,3217.93,1838.765L3217.93,1838.765z"/>
						</g>
					</g>
				</g>
			</g>
			<g>
				<g>
					<path style="fill:#EDA743;" d="M1920.962,1015.622c-192.522-97.043-458.609,21.913-483.652,303.652
						c0,0-211.826,22.956-162.783,235.826c-159.652,64.696-219.913,393.391-70.435,540.522c0,0-65.739,292.696,184.696,402.261
						c0,0,31.304,233.217,281.739,237.913c0,0,153.391,142.435,313.043,42.261c0,0,286.435,149.217,472.696-117.391
						c0,0,208.174,36,259.826-203.478c0,0,162.783-29.739,123.652-189.391c0,0,145.565-103.304,59.478-356.87
						c0,0,95.478-369.391-154.956-499.304c0,0,12-177.913-146.087-182.087c0,0-32.869-227.478-285.391-177.391
						C2249.135,952.319,2072.788,909.187,1920.962,1015.622z"/>
				</g>
				<g>
					<path style="fill:#FFC25F;" d="M1636.614,1223.274c129.118-171.04,338.087-44.576,338.087-44.576s150.261-179.772,288,15.358
						c90.857,128.714-48.902,253.639-277.565,217.397C1720.991,1578.945,1530.24,1364.185,1636.614,1223.274z"/>
				</g>
				<g>
					<path style="fill:#FFC25F;" d="M1312.618,1722.931c4.678-126.262,148.379-135.669,148.379-135.669
						s11.951-137.62,144.399-89.791c87.367,31.549,86.626,111.931-32.5,223.981
						C1412.008,1872.782,1308.764,1826.952,1312.618,1722.931z"/>
				</g>
				<g>
					<path style="fill:#FFC25F;" d="M2449.483,1358.919c125.48,14.789,123.333,158.781,123.333,158.781
						s136.218,22.949,77.922,151.134c-38.454,84.555-118.517,77.37-220.653-50.357
						C2292.144,1445.971,2346.106,1346.735,2449.483,1358.919z"/>
				</g>
				<g>
					<path style="fill:#FFC25F;" d="M2777.752,1989.835c-9.48,125.993-147.785,136.316-147.785,136.316
						c10.932,67.85-52.994,97.589-125.777,69.416c-66.949-25.916-95.448-112.752,13.293-203.115
						C2626.224,1902.088,2787.495,1860.349,2777.752,1989.835z"/>
				</g>
				<g>
					<path style="fill:#FFC25F;" d="M1652.676,2335.35c-117.93,45.348-178.399-92.716-178.399-92.716
						s-133.345,36.073-133.947-104.745c-0.398-92.888,77.481-123.93,221.507-46.455
						C1718.525,2175.719,1729.481,2305.815,1652.676,2335.35z"/>
				</g>
				<g style="opacity:0.6;">
					<path style="fill:#FFFFFF;" d="M2920.104,2126.659c11.041-54.295,9.757-125.489-20.881-215.733
						c0,0,95.478-369.391-154.957-499.304c0,0,12-177.913-146.087-182.087c0,0-32.869-227.478-285.391-177.391
						c-63.652-99.825-240-142.957-391.826-36.521c-192.522-97.044-458.609,21.913-483.652,303.651
						c0,0-211.826,22.957-162.783,235.826c-159.286,64.548-219.617,391.87-71.44,539.491l19.005-7.578
						c-133.826-215.217-17.217-454.695,114.372-499.241c-71.329-130.759,48.41-221.541,146.236-223.889
						c45.811-278.465,267.652-363.913,452.348-290.129c128.348-94.132,251.217-80.828,349.826,27.172
						c177.279-24.888,245.739,61.826,273.961,182.717c82.908,0,147.651,56.762,123.604,164.762
						c195.198,64.832,208.957,280.563,169.043,451.566C2851.483,1899.969,2928.432,2015.33,2920.104,2126.659z"/>
				</g>
				<g>
					<path style="fill:#CE751D;" d="M1928.788,2013.839c70.895-42.06,156-59.609,265.508-29.021c0,0-94.815-349.371-189.553-331.11
						C1910.005,1671.969,1928.788,2013.839,1928.788,2013.839z"/>
				</g>
				<g>
					<path style="fill:#CE751D;" d="M2853.771,1926.355c71.432,210.398-34.357,296.555-42.014,302.438l-27.617,18.563l8.984,31.867
						c8.336,34.016,5.691,60.891-8.088,82.16c-24.203,37.359-77.049,48.492-77.572,48.586l-31.535,5.762l-6.76,31.336
						c-14.389,66.719-43.57,114.207-86.734,141.148c-34.926,21.797-72.191,26.371-97.303,26.371
						c-12.816,0-20.926-1.262-21.008-1.273l-30.057-5.195l-17.148,25.059c-64.211,91.906-148.525,138.508-250.604,138.508
						c-88.945,0-160-35.902-160.707-36.266l-24.289-12.453l-23.262,14.434c-29.992,18.82-62.033,28.359-95.232,28.359
						c-87.049,0-158.938-64.484-159.639-65.137l-13.434-12.473l-18.326-0.344c-87.17-1.633-153.014-35.039-195.703-99.289
						c-32.109-48.328-39.299-96.543-39.361-97.02l-3.594-26.766l-24.74-10.824c-87.254-38.172-140.309-106.641-157.691-203.5
						c-13.797-76.879,0.473-143.73,0.617-144.395c20.442,137.262,109.138,243.008,246.488,281.523
						c34.068,126.783,160.563,167.478,263.868,115.826c72.784,62.609,144.109,62.609,219.189,21.17
						c157.246,107.96,332.551,57.1,422.08-93.513c108.992,9.03,180.992-16.092,213.34-134.005
						c72.522,18.522,111.13-21.348,112.174-106.956C2825.527,2159.534,2874.57,2046.708,2853.771,1926.355z"/>
				</g>
				<g>
					<path style="fill:#512717;" d="M2165.911,2839.673c-5.688,0-11.245-0.122-16.68-0.352
						c-78.139-3.276-140.708-27.876-164.565-38.604c-68.584,39.238-146.074,43.56-224.849,12.368
						c-48.369-19.15-83.594-46.26-97.007-57.495c-133.345-4.863-206.064-72.764-243.726-129.443
						c-31.284-47.085-43.755-93.599-48.101-114.385c-103.174-48.604-168.154-135.771-188.174-252.725
						c-12.148-70.967-4.419-132.666-0.308-156.924c-72.002-77.197-100.752-203.374-75.073-332.544
						c21.265-106.96,74.619-189.949,144.321-225.977c-11.284-62.502-1.855-115.454,28.101-157.573
						c40.908-57.524,108.345-77.549,139.16-83.928c15.84-129.692,84.224-236.672,189.258-295.098
						c97.637-54.307,212.993-59.443,310.986-14.387c77.49-50.945,165.918-69.771,250.307-53.03
						c64.043,12.708,118.765,45.403,152.334,90.569c79.297-13.259,145.889-1.279,198.12,35.676
						c63.394,44.851,86.895,113.608,94.614,144.709c41.709,4.163,75.679,20.398,101.157,48.381
						c42.612,46.809,48.311,112.988,48.677,140.923c102.173,58.013,161.264,164.475,171.143,308.789
						c6.582,96.135-10.396,178.894-15.596,201.404c73.442,222.871-24.273,334.8-58.13,365.386
						c9.116,47.271,2.48,88.579-19.775,122.939c-31.28,48.276-84.624,68.32-109.297,75.317
						c-51.074,207.554-218.994,211.377-267.026,208.052C2371.502,2810.127,2254.012,2839.668,2165.911,2839.673z M1982.649,2755.024
						l10.161,5.293c0.669,0.347,69.888,35.679,159.512,39.097c118.057,4.561,214.771-46.03,287.549-150.205l7.28-10.42l12.524,2.168
						c7.7,1.279,190.02,29.199,236.865-187.988l2.817-13.057l13.139-2.397c0.596-0.112,64.99-12.715,96.187-61.143
						c17.822-27.666,21.738-62.598,11.636-103.818l-3.237-13.203l11.089-7.866c5.347-3.877,131.934-99.014,52.109-334.128
						l-1.919-5.654l1.494-5.781c0.908-3.53,88.413-355.564-144.8-476.545l-11.626-6.033l0.879-13.066
						c0.049-0.737,4.429-77.896-38.237-124.587c-21.021-23-50.771-35.168-88.423-36.162l-16.856-0.444l-2.412-16.689
						c-0.122-0.808-13.56-86.111-81.792-134.148c-45.718-32.185-106.245-41.089-179.912-26.484l-13.408,2.661l-7.348-11.526
						c-26.66-41.812-75.552-72.458-134.141-84.082c-77.153-15.303-158.579,3.582-229.341,53.186l-9.795,6.868l-10.688-5.386
						c-88.364-44.543-194.619-41.379-284.243,8.469c-97.393,54.175-159.531,155.901-170.483,279.092l-1.455,16.345l-16.313,1.768
						c-0.801,0.09-84.619,10.171-127.173,70.273c-25.43,35.92-31.577,83.42-18.271,141.182l3.833,16.621l-15.811,6.404
						c-63.647,25.793-115.522,103.86-135.376,203.735c-18.784,94.473-9.873,223.943,71.455,303.997l7.92,7.793l-2.436,10.845
						c-0.151,0.679-15.483,71.387-1.147,153.535c18.779,107.573,77.437,183.618,174.35,226.016l10.308,4.512l1.499,11.152
						c1.216,8.789,32.549,216.27,262.29,220.581l7.637,0.142l5.596,5.195c5.806,5.366,144.336,130.635,288.809,39.976
						L1982.649,2755.024z"/>
				</g>
			</g>
			<g>
				<g>
					<path style="fill:#512717;" d="M1539.73,1473.969c-2.609-71.217,49.406-122.609,104.188-124.957
						c43.638-1.87,75.913,31.304,55.305,96C1649.918,1422.578,1598.788,1438.23,1539.73,1473.969z"/>
				</g>
				<g>
					<path style="fill:#512717;" d="M2246.527,1369.36c-31.043-49.043-14.154-105.586,31.826-114.782
						c45.652-9.131,118.435,21.13,127.304,92.87C2354.266,1332.839,2301.57,1322.665,2246.527,1369.36z"/>
				</g>
			</g>
			<g>
				<g>
					<g>
						<path style="fill:#512717;" d="M1737.831,1116.317c-38.348,26.478-84.913,111.783-21.652,170.87
							c48.463,45.266,129.473,30.236,169.304-27.913c35.739-52.174,34.696-112.174-6.783-146.348
							C1841.501,1082.277,1786.618,1082.631,1737.831,1116.317z"/>
					</g>
					<g>
						<path style="fill:#663714;" d="M1753.976,1131.422c-23.964,16.546-53.062,69.853-13.53,106.776
							c30.285,28.286,80.907,18.894,105.798-17.443c22.333-32.603,21.681-70.097-4.239-91.453
							C1818.759,1110.15,1784.463,1110.372,1753.976,1131.422z"/>
					</g>
					<g>
						<path style="fill:#8C4C17;" d="M1773.166,1148.267c-22.72,11.536-29.471,47.306-13.552,56.386
							c23.704,13.521,75.56-18.738,58.593-52.917C1812.6,1140.439,1790.267,1139.584,1773.166,1148.267z"/>
					</g>
				</g>
				<g>
					<g>
						<path style="fill:#512717;" d="M1361.017,1476.56c0-47.33,52.032-70.026,84.51-54.373
							c26.904,12.966,43.979,82.089-2.348,102.13C1416.044,1536.056,1361.017,1521.27,1361.017,1476.56z"/>
					</g>
					<g>
						<path style="fill:#663714;" d="M1381.845,1465.397c0-25.358,27.877-37.518,45.278-29.132
							c14.414,6.947,23.563,43.981-1.258,54.719C1411.327,1497.274,1381.845,1489.351,1381.845,1465.397z"/>
					</g>
					<g>
						<path style="fill:#8C4C17;" d="M1419.917,1442.885c7.871,3.759,3.397,9.036-6.346,18.106
							c-5.602,5.215-19.696,16.435-19.696,0.652S1410.355,1438.319,1419.917,1442.885z"/>
					</g>
				</g>
				<g>
					<g>
						<path style="fill:#512717;" d="M1340.266,2161.882c-56.313,23.382-62.484,106.914-31.304,150.261
							c32.087,44.609,101.913,46.604,134.609,14.609c36.522-35.739,36.783-92.348,4.696-138.261
							C1422.613,2151.784,1384.875,2143.361,1340.266,2161.882z"/>
					</g>
					<g>
						<path style="fill:#663714;" d="M1350.528,2180.539c-34.001,14.117-37.727,64.553-18.901,90.726
							c19.374,26.934,61.534,28.139,81.275,8.821c22.052-21.579,22.209-55.759,2.835-83.48
							C1400.249,2174.442,1377.463,2169.356,1350.528,2180.539z"/>
					</g>
					<g>
						<path style="fill:#8C4C17;" d="M1360.55,2200.257c-16.023,6.653-17.806,32.973-13.892,40.539
							c3.913,7.565,21.13-3.51,33.652-12.261c12.522-8.751,20.739-20.609,17.609-25.043
							C1392.803,2196.244,1373.242,2194.987,1360.55,2200.257z"/>
					</g>
				</g>
				<g>
					<g>
						<path style="fill:#512717;" d="M1570.353,2379.708c-64.174,15.652-86.87,107.609-64.565,162.391
							c28.973,71.161,104.87,75.131,161.609,47.739c56.739-27.391,72.274-103.027,44.217-145.957
							C1679.135,2394.187,1627.429,2365.788,1570.353,2379.708z"/>
					</g>
					<g>
						<path style="fill:#663714;" d="M1574.135,2404.653c-37.517,9.15-50.785,62.909-37.745,94.936
							c16.938,41.602,61.308,43.922,94.478,27.909s42.252-60.23,25.85-85.328C1637.73,2413.117,1607.502,2396.514,1574.135,2404.653
							z"/>
					</g>
					<g>
						<path style="fill:#8C4C17;" d="M1577.6,2424.849c-17.395,8.38-26.95,36.448-20.435,43.209
							c5.362,5.563,23.572,7.068,40.931,1.579c18.333-5.798,33.692-18.515,32.127-27.32
							C1627.996,2429.796,1601.853,2413.165,1577.6,2424.849z"/>
					</g>
				</g>
				<g>
					<g>
						<path style="fill:#512717;" d="M1826.266,2610.187c36.391-49.696,105.652-29.739,109.174,23.087
							c3.522,52.826-31.696,74.348-77.87,62.609C1811.396,2684.143,1807.053,2636.424,1826.266,2610.187z"/>
					</g>
					<g>
						<path style="fill:#663714;" d="M1847.304,2610.088c19.976-27.278,57.994-16.324,59.927,12.673
							c1.933,28.997-17.398,40.811-42.744,34.367C1839.142,2650.684,1836.757,2624.49,1847.304,2610.088z"/>
					</g>
					<g>
						<path style="fill:#8C4C17;" d="M1856.809,2623.376c-3.291-16.429,18.609-23.367,24.681-17.67
							c6.071,5.697-1.048,14.816-6.783,18.874C1870.937,2627.247,1858.547,2632.05,1856.809,2623.376z"/>
					</g>
				</g>
				<g>
					<g>
						<path style="fill:#512717;" d="M2472.31,2362.1c-43.043,6.261-70.826,63.221-46.565,101.739
							c21.929,34.816,107.673,38.975,118.174-19.565C2553.114,2393.013,2520.916,2355.03,2472.31,2362.1z"/>
					</g>
					<g>
						<path style="fill:#663714;" d="M2471.793,2381.803c-24.165,3.515-39.762,35.492-26.142,57.116
							c12.311,19.546,60.447,21.88,66.343-10.984C2517.157,2399.158,2499.081,2377.834,2471.793,2381.803z"/>
					</g>
					<g>
						<path style="fill:#8C4C17;" d="M2483.44,2392.554c-11.652-6.584-30.761,5.742-31.543,21.198
							c-0.783,15.457,15.848,7.5,23.543,1.109C2483.135,2408.469,2490.409,2396.492,2483.44,2392.554z"/>
					</g>
				</g>
				<g>
					<g>
						<path style="fill:#512717;" d="M2639.788,2079.969c-58.857,31.561-93.13,127.565-21.913,176.087
							c71.217,48.521,147.377-0.165,155.739-68.041C2785.353,2092.731,2720.788,2036.535,2639.788,2079.969z"/>
					</g>
					<g>
						<path style="fill:#663714;" d="M2648.664,2109.255c-35.325,18.942-55.896,76.563-13.152,105.685
							c42.744,29.122,88.453-0.099,93.472-40.837C2736.03,2116.915,2697.279,2083.187,2648.664,2109.255z"/>
					</g>
					<g>
						<path style="fill:#8C4C17;" d="M2673.571,2158.405c16.506-11.583,26.266-24.831,17.08-32.294
							c-10.004-8.128-56.959,0.161-56.981,34.878C2633.659,2177.925,2659.313,2168.411,2673.571,2158.405z"/>
					</g>
				</g>
				<g>
					<g>
						<path style="fill:#512717;" d="M2284.614,1272.317c-40.696,29.739-153.913-2.087-168-60.522
							c-12.219-50.685,50.349-150.794,117.391-136.696C2307.123,1090.475,2330.867,1238.517,2284.614,1272.317z"/>
					</g>
					<g>
						<path style="fill:#663714;" d="M2255.34,1220.636c-24.355,17.798-92.112-1.249-100.542-36.22
							c-7.313-30.333,30.132-90.245,70.254-81.808C2268.81,1111.81,2283.021,1200.408,2255.34,1220.636z"/>
					</g>
					<g>
						<path style="fill:#8C4C17;" d="M2223.049,1169.208c-9.826,14.337-35.62,25.879-39.261,5.283
							c-4.565-25.826,15-50.217,39.522-48.317C2236.76,1127.216,2235.831,1150.556,2223.049,1169.208z"/>
					</g>
				</g>
			</g>
			<g>
				<g>
					<path style="fill:#FF4545;" d="M2092.614,2617.622c0,0-39.978,54.587-38.349,78.456c1.351,19.788,45.827,68.283,62.11,68.283
						s65.848-53.609,65.848-71.609c0-18.913-40.37-75.13-40.37-75.13H2092.614z"/>
				</g>
				<g>
					<path style="fill:#D81A1A;" d="M2182.222,2692.751c0-18.913-40.369-75.13-40.369-75.13h-19.528
						c0.553,2.863,1.212,5.824,2.115,9.004c25.598,90.203-15.228,116.623-69.879,63.772c-0.291,2.028-0.415,3.943-0.296,5.68
						c1.351,19.788,45.827,68.283,62.11,68.283S2182.222,2710.751,2182.222,2692.751z"/>
				</g>
				<g style="opacity:0.6;">
					<path style="fill:#FFFFFF;" d="M2080.678,2694.122c-1.448-21.204,29.915-66.613,36.944-76.5h-25.008
						c0,0-39.978,54.587-38.349,78.456c1.351,19.788,45.827,68.283,62.11,68.283c3.547,0,8.675-2.547,14.525-6.713
						C2111.118,2744.958,2081.771,2710.139,2080.678,2694.122z"/>
				</g>
				<g>
					<path style="fill:#512717;" d="M2116.375,2780.361c-26.944,0-76.26-56.709-78.071-83.193
						c-1.885-27.559,31.216-75.088,41.401-88.999l25.821,18.906c-17.642,24.106-36.03,57.153-35.298,67.915
						c1.226,11.416,33.066,47.759,46.04,53.042c13.291-5.635,47.383-43.32,49.937-55.566c-0.821-8.32-18.101-38.696-37.349-65.513
						l25.996-18.662c13.037,18.159,43.374,62.744,43.374,84.463C2198.225,2719.771,2141.619,2780.361,2116.375,2780.361z
						 M2114.954,2748.506L2114.954,2748.506L2114.954,2748.506z"/>
				</g>
				<g>
					<path style="fill:#FF4545;" d="M2092.614,2617.622c0,0-19.76-23.108-24.13-37.174c-5.381-17.315,2.935-26.707,22.5-29.739
						c14.391-2.231,41.181-2.204,54.196,0.587c19.614,4.207,24.457,15.946,18,32.207c-6.182,15.571-21.326,34.119-21.326,34.119
						H2092.614z"/>
				</g>
				<g>
					<path style="fill:#D81A1A;" d="M2151.378,2553.064c-0.266,0.79-0.641,1.549-0.861,2.395
						c-3.968,15.207-8.957,29.884-21.326,34.119c-21.325,7.301-43.881,3.979-62.216-16.905c0.163,2.396,0.638,4.971,1.509,7.775
						c4.371,14.066,24.13,37.174,24.13,37.174h49.239c0,0,15.144-18.548,21.326-34.119
						C2168.888,2569.123,2165.741,2558.29,2151.378,2553.064z"/>
				</g>
				<g style="opacity:0.6;">
					<path style="fill:#FFFFFF;" d="M2099.201,2570.274c14.391-2.231,41.181-2.205,54.196,0.587
						c4.955,1.063,8.96,2.609,12.086,4.584c1.995-12.054-4.104-20.676-20.303-24.149c-13.014-2.791-39.804-2.817-54.196-0.587
						c-19.565,3.032-27.88,12.424-22.5,29.739c1.277,4.109,3.881,8.99,6.909,13.842
						C2073.43,2580.605,2081.916,2572.953,2099.201,2570.274z"/>
				</g>
				<g>
					<path style="fill:#512717;" d="M2149.446,2633.623h-64.204l-4.785-5.601c-3.662-4.277-22.163-26.445-27.251-42.827
						c-3.833-12.339-2.964-23.11,2.598-32.017c6.055-9.702,17.065-15.854,32.729-18.281c15.473-2.402,44.414-2.588,60,0.752
						c14.253,3.057,24.16,9.629,29.453,19.531c3.569,6.689,6.485,18.062,0.059,34.229c-6.895,17.363-22.085,36.235-23.799,38.33
						L2149.446,2633.623z M2100.198,2601.621h33.765c4.78-6.538,11.245-16.221,14.341-24.023c1.885-4.741,1.621-7.026,1.455-7.339
						c-0.01-0.02-1.387-1.914-7.939-3.32c-10.415-2.236-35.293-2.446-48.384-0.42c-7.271,1.128-10.078,3.032-10.488,3.608
						c-0.112,0.303-0.259,2.109,0.816,5.576C2085.642,2581.753,2093.421,2592.998,2100.198,2601.621z"/>
				</g>
			</g>
			<g>
				<g>
					<g>
						<path style="fill:#512717;" d="M1829.136,2268.056c0,0,303.13,18,519.602-72.041c8.919,38.911-44.955,252.703-223.124,279.172
							C1949.135,2501.404,1835.135,2298.317,1829.136,2268.056z"/>
					</g>
					<g>
						<path style="fill:#FF9292;" d="M2125.614,2475.187c28.505-4.235,53.813-13.281,76.207-25.622
							c11.575-45.051-37.729-69.334-83.642-18.726c-56.869-35.739-99.391-6-73.16,40.73
							C2070.122,2477.638,2097.043,2479.431,2125.614,2475.187z"/>
					</g>
					<g>
						<path style="fill:#512717;" d="M2094.226,2497.529c-170.239,0.005-277.744-190.444-284.712-225.581l-5.034-25.381
							l25.835,1.523c2.979,0.176,301.157,16.636,510.742-70.542l21.88-9.102l5.293,23.101
							c6.973,30.41-12.471,115.566-59.976,185.161c-45.503,66.66-107.646,107.554-179.702,118.262
							C2116.848,2496.709,2105.398,2497.529,2094.226,2497.529z M1860.301,2289.238c31.475,57.256,125.161,186.572,262.373,166.162
							c61.611-9.15,112.93-43.213,152.544-101.24c32.559-47.7,47.588-98.379,52.534-128.516
							C2153.421,2289.15,1940.584,2291.104,1860.301,2289.238z"/>
					</g>
				</g>
				<g>
					<g>
						<path style="fill:#EDA743;" d="M1761.309,2306.534c0,0,115.435-10.565,81.391-110.52"/>
					</g>
					<g>
						<path style="fill:#512717;" d="M1761.309,2306.534c24.49-20.106,49.627-32.638,65.318-57.95
							c9.331-16.336,11.01-30.864,16.074-52.57c26.547,20.962,29.27,64.94,6.022,89.995
							C1826.351,2310.956,1791.305,2319.227,1761.309,2306.534L1761.309,2306.534z"/>
					</g>
				</g>
				<g>
					<g>
						<path style="fill:#EDA743;" d="M2431.845,2216.365c0,0-113.211,24.9-111.047-80.67"/>
					</g>
					<g>
						<path style="fill:#512717;" d="M2431.846,2216.365c-24.743,21.186-60.645,23.914-89.526,6.922
							c-29.738-16.839-40.474-59.576-21.52-87.593c11.4,19.149,17.402,32.488,31.242,45.23
							C2374.676,2200.299,2402.4,2204.618,2431.846,2216.365L2431.846,2216.365z"/>
					</g>
				</g>
			</g>
			<g>
				<g>
					<path style="fill:#FFDC2E;" d="M1974.701,1807.622c0,0-18.09-170.237-46.957-228.522
						c-27.326-55.174-80.416-92.458-233.217-58.435c-132.391,29.478-402.925,135.305-479.217,187.043
						c-11.348,7.696-19.043,16.435-16.174,39.652c2.87,23.217,7.209,33.019,10.315,38.569c4.493,8.029,13.555,17.518,50.859,7.475
						c0,0,12.652,206.596,131.087,367.957c62.942,85.755,112.174,107.739,217.044,97.565c99.451-9.648,296.87-69.391,329.739-90.261
						c32.87-20.87,34.957-59.478,36.522-94.435c1.565-34.957,0-184.174,0-184.174s72.013-14.765,125.492-16.069
						c0,0,50.688,164.375,57.9,183.026c17.804,46.044,38.152,82.239,119.218,85.044c97.155,3.361,274.677-8.806,338.087-27.391
						c52.956-15.522,85.384-57.302,100.696-88.174c80.609-162.522,65.739-330,50.087-442.696
						c17.804-1.467,34.533-6.457,39.599-18.231c5.611-13.041,5.955-40.219,4.325-52.106c-3.032-22.109-16.421-27.562-37.402-34.141
						c-74.869-23.478-384.522-55.957-574.696-29.609c-49.395,6.844-113.218,26.609-129.391,94.957
						c-20.9,88.319,15.13,249.391,15.13,249.391C2053.092,1792.882,2010.049,1798.1,1974.701,1807.622z"/>
				</g>
				<g style="opacity:0.7;">
					<path style="fill:#FFFFFF;" d="M2186.527,1489.1c201.229-46.681,514.662,6.796,624.213,31.609
						c-0.147-2.753-0.361-5.234-0.637-7.25c-3.033-22.109-16.421-27.562-37.402-34.142
						c-74.869-23.478-384.522-55.956-574.696-29.608c-49.395,6.843-113.218,26.608-129.391,94.956
						c-20.9,88.32,15.13,249.392,15.13,249.392c-30.652-1.174-73.695,4.043-109.043,13.565c0,0-18.09-170.237-46.957-228.522
						c-27.326-55.174-80.416-92.458-233.217-58.435c-132.391,29.479-402.925,135.305-479.217,187.044
						c-11.348,7.695-19.044,16.435-16.174,39.652c0.323,2.614,0.667,5.035,1.024,7.322
						c165.371-109.913,486.526-214.489,594.02-214.489c28.697,0,74.526,0.599,99.131,50.123
						c40.696,81.913,52.109,252.913,52.109,252.913c49.891-12.13,122.674-25.63,179.413-14.478c0,0-31.174-145.304-25.435-227.217
						C2103.825,1538.323,2125.801,1503.187,2186.527,1489.1z"/>
				</g>
				<g>
					<path style="fill:#F4AE00;" d="M2729.814,1550.075c0,0,35.843,202.242-11.635,369.874
						c-6.291,22.211-33,137.064-119.087,161.194c-35.284,9.89-230.739,42.652-336.913,19.565
						c-43.728-9.508-59.7-34.696-67.883-48.913c-28.378-49.305-69.86-213.433-69.86-213.433
						c-43.525-6.683-115.3,0.563-178.431,17.259c0,0,14.609,216.798-25.565,267.707c-32.624,41.342-277.043,110.687-400.748,88.641
						c-128.321-22.869-224.957-247.782-234.73-462.261c0,0-60.033,26.067-84.236,8.402c2.73,15.667,6.151,23.218,8.726,27.818
						c4.493,8.029,13.554,17.519,50.859,7.475c0,0,12.652,206.596,131.087,367.957c62.942,85.755,112.174,107.739,217.043,97.565
						c99.451-9.648,296.87-69.391,329.739-90.261c32.87-20.869,34.957-59.478,36.522-94.435c1.565-34.956,0-184.174,0-184.174
						s72.013-14.765,125.492-16.069c0,0,50.688,164.375,57.9,183.026c17.804,46.043,38.152,82.239,119.218,85.043
						c97.155,3.361,274.677-8.806,338.087-27.392c52.957-15.521,85.384-57.302,100.696-88.174
						c80.609-162.521,65.739-330,50.087-442.695c17.804-1.468,34.533-6.457,39.599-18.231c2.892-6.721,4.377-17.192,4.921-27.394
						C2789.763,1553.619,2729.814,1550.075,2729.814,1550.075z"/>
				</g>
				<g>
					<path style="fill:#512717;" d="M1566.512,2281.147c-83.721,0.005-133.96-29.917-191.24-107.949
						c-98.73-134.521-125.889-296.855-132.773-355.942c-19.219,2.009-39.199-1.362-50.498-21.56
						c-4.209-7.517-9.458-19.526-12.715-45.881c-4.199-34.019,10.181-48.74,24.8-58.657
						c78.862-53.481,351.44-160.029,486.099-190.015c137.813-30.698,216.616-9.385,255.483,69.08
						c23.896,48.252,40.205,163.662,46.289,212.773c22.31-4.609,46.011-7.668,67.373-8.708
						c-9.331-49.358-27.134-162.571-10.176-234.229c14.594-61.687,63.755-98.75,146.108-110.159
						c194.99-27.026,510.078,7.336,583.423,30.332c19.536,6.128,46.289,14.519,51.236,50.505
						c1.606,11.731,2.378,43.796-5.767,62.732c-5.645,13.113-17.583,22.104-35.591,26.86
						c15.859,124.431,21.162,282.397-54.556,435.046c-11.401,22.998-45.244,78.628-112.983,98.481
						c-69.414,20.342-250.049,35.083-345.171,28.145c-93.794-6.831-117.119-56.548-135.864-96.494
						c-24.834-52.92-46.709-135.823-55.371-170.779c-31.885,2.119-66.431,7.771-86.142,11.35
						c0.645,34.661,1.65,114.458-1.46,169.028c-1.763,30.996-4.712,82.881-48.115,110.444
						c-37.134,23.579-236.743,83.408-338.53,93.281C1594.749,2280.347,1580.174,2281.147,1566.512,2281.147z M1278.777,1767.72
						l1.494,24.46c0.127,2,13.853,202.849,127.246,357.346c58.525,79.736,101.318,98.984,198.989,89.492
						c98.662-9.57,291.494-68.53,320.947-87.236c24.082-15.293,27.759-46.069,29.629-78.95c3.887-68.276,1.069-181.567,1.04-182.705
						l-0.42-16.675l16.323-3.411c2.876-0.601,71.006-14.717,125.679-16.05l16.313-0.396l3.662,15.901
						c0.269,1.15,26.88,115.867,56.519,179.019c17.236,36.738,32.124,68.462,102.563,73.594
						c97.241,7.085,271.738-9.268,331.01-26.641c52.573-15.405,79.336-59.585,88.403-77.866
						c74.39-149.978,66.104-302.063,48.194-431.055l-2.91-20.947l21.079-1.736c15.865-1.309,22.061-5.171,22.983-6.418
						c3.169-7.417,4.312-29.995,2.769-41.277c-1.206-8.77-2.3-11.096-23.574-17.769c-70.781-22.2-376.108-55.186-565.967-28.882
						c-65.259,9.043-102.115,35.129-112.671,79.751c-19.619,82.881,14.829,238.853,15.18,240.42l5.669,25.342l-25.948-0.991
						c-28.921-1.108-70.342,4.077-103.081,12.893l-22.612,6.091l-2.475-23.289c-4.932-46.372-22.627-176.606-44.995-221.76
						c-20.903-42.205-62.305-80.876-210.942-47.791c-128.594,28.635-397.871,133.574-472.339,184.075
						c-6.401,4.341-9.321,6.323-7.554,20.649c2.715,21.948,6.636,28.953,7.92,31.252c0.386,0.684,0.562,0.901,0.591,0.933
						c0.029,0.012,1.27,0.647,5.571,0.647c4.199,0,11.143-0.715,22.046-3.65L1278.777,1767.72z"/>
				</g>
				<g>
					<path style="fill:#EDA743;" d="M1761.309,1580.143c47.478-5.478,87.108,6.855,104.609,57.391
						c31.043,89.643,43.826,311.478,38.217,405.652c-2.311,38.801-7.897,55.831-42.595,74.048
						c-38.21,20.061-162.057,61.343-261.057,68.778c-33.737,2.534-90.433,3.713-133.826-51.848
						c-73.957-94.696-120.522-239.283-125.609-341.022c-1.544-30.877-3.717-63,30.13-85.304
						C1451.502,1654.909,1671.132,1590.548,1761.309,1580.143z"/>
				</g>
				<g>
					<path style="fill:#EDA743;" d="M2226.44,1514.926c-44.496,8.515-84.052,18.529-87.391,82.435
						c-6.782,129.817,55.043,364.826,84.391,426.261c12.471,26.107,30.13,44.217,75.522,47.739
						c54.457,4.225,203.217-4.696,273.786-17.739c35.839-6.625,63.743-29.211,84.78-73.565c72.13-152.087,44.963-346.18,39-375.652
						c-9.13-45.13-24.279-76.46-99.783-89.478C2471.918,1493.404,2261.201,1508.274,2226.44,1514.926z"/>
				</g>
				<g>
					<g>
						<path style="fill:#FFFFFF;" d="M1845.831,2061.187c-67.826,120.522-261.913,87.13-314.321-4.174
							c0,0-17.896-22.239-24.94-43.174c-47.87-86.739-68.691-301.518,101.87-348.13c168-45.913,261.391,98.609,252.522,253.565
							C1861.541,1957.882,1861.541,2013.839,1845.831,2061.187z"/>
					</g>
					<g>
						<path style="fill:#512717;" d="M1506.57,2013.839c-68.698-103.611-71.042-279.482,49.052-347.96
							c137.509-71.329,275.488-5.19,304.641,146.524c6.627,35.711,7.054,72.052,0.699,106.871
							c-2.529-35.236-8.308-69.666-19.678-101.821c-42.08-124.217-147.177-174.959-266.482-117.108
							C1470.439,1757.287,1469.816,1913.862,1506.57,2013.839L1506.57,2013.839z"/>
					</g>
					<g>
						<path style="fill:#512717;" d="M1531.511,2057.013c60.25,57.262,163.667,76.385,240.864,51.261
							c26.538-8.817,50.965-24.425,73.455-47.087c-3.794,15.526-11.523,30.265-21.904,43.236
							c-55.027,66.692-160.237,68.354-230.544,26.283C1565.691,2114.046,1540.018,2088.69,1531.511,2057.013L1531.511,2057.013z"/>
					</g>
					<g>
						<path style="fill:#512717;" d="M1713.433,2138.463c-101.863,9.332-141.515-48.32-162.717-120.023
							c-7.793-26.355-18.999-83.624-19.083-126.38c-0.196-99.309,44.266-152.526,120.023-162.717
							c63.87-8.592,134.435,3.93,162.717,120.023c8.852,36.335,17.556,96.526,19.083,126.38
							C1838.788,2079.969,1811.651,2129.466,1713.433,2138.463z"/>
					</g>
					<g>
						
							<ellipse transform="matrix(0.9858 -0.168 0.168 0.9858 -292.7885 299.3622)" style="fill:#FFFFFF;" cx="1622.632" cy="1879.861" rx="44.453" ry="53.457"/>
					</g>
					<g style="opacity:0.4;">
						
							<ellipse transform="matrix(0.9858 -0.168 0.168 0.9858 -298.3531 313.9088)" style="fill:#FFFFFF;" cx="1705.875" cy="1920.079" rx="22.864" ry="27.495"/>
					</g>
				</g>
				<g>
					<g>
						<path style="fill:#FFFFFF;" d="M2266.814,1984.58c89.768,105.203,273.79,35.057,307.633-64.631
							c0,0,13.278-25.269,16.158-47.169c30.268-94.335,9.335-309.102-167.009-321.994
							c-173.697-12.698-237.507,147.104-198.96,297.452C2231.503,1886.235,2242.28,1941.144,2266.814,1984.58z"/>
					</g>
					<g>
						<path style="fill:#512717;" d="M2590.605,1872.78c16.83-105.101-13.976-258.746-127.328-294.485
							c-128.266-33.801-221.589,36.302-238.941,166.238c-4.966,33.744-4.007,68.642,0.3,103.705
							c-12.944-32.943-19.521-68.685-19.897-105.004c-0.598-154.551,122.087-245.949,270.719-202.453
							C2606.505,1584.873,2638.054,1757.843,2590.605,1872.78L2590.605,1872.78z"/>
					</g>
					<g>
						<path style="fill:#512717;" d="M2574.448,1919.949c-2.256,32.728-22.559,62.544-46.521,84.229
							c-60.875,54.825-164.465,73.456-231.292,18.61c-12.685-10.728-23.108-23.704-29.822-38.207
							c50.515,35.138,106.942,40.676,164.009,26.58C2486.881,1996.454,2539.148,1969.298,2574.448,1919.949L2574.448,1919.949z"/>
					</g>
					<g>
						<path style="fill:#512717;" d="M2411.616,2034.911c101.753-10.461,129.56-74.67,136.555-149.114
							c2.571-27.362,2.538-85.717-5.613-127.689c-18.934-97.487-72.813-141.145-149.115-136.555
							c-64.329,3.87-131.162,29.747-136.555,149.114c-1.688,37.359,1.362,98.1,5.614,127.689
							C2277.343,2001.654,2313.505,2044.998,2411.616,2034.911z"/>
					</g>
					<g>
						
							<ellipse transform="matrix(0.9918 -0.1281 0.1281 0.9918 -207.2915 316.2051)" style="fill:#FFFFFF;" cx="2353.792" cy="1769.101" rx="44.453" ry="53.457"/>
					</g>
					<g style="opacity:0.4;">
						
							<ellipse transform="matrix(0.9918 -0.1281 0.1281 0.9918 -212.2063 327.0281)" style="fill:#FFFFFF;" cx="2435.346" cy="1812.643" rx="22.864" ry="27.495"/>
					</g>
				</g>
				<g style="opacity:0.6;">
					<path style="fill:#FFFFFF;" d="M1823.918,1727.177c-6.261-18.165-89.218,2.184-88.435-15.034
						c0.374-8.23,20.651-70.43,41.716-133.115c-5.186,0.132-10.479,0.491-15.89,1.115c-60.832,7.02-180.536,38.599-276.683,74.651
						c-29.318,69.479-58.274,182.748-52.013,195.766c6.261,13.018,118.957,9.496,128.348,12.627
						c5.909,1.969-49.185,158.993-90.866,275.203c42.911,51.252,97.534,50.091,130.388,47.624
						c39.67-2.979,83.321-11.398,123.861-21.704C1762.117,2011.977,1828.412,1740.216,1823.918,1727.177z"/>
				</g>
				<g>
					<path style="fill:#512717;" d="M1579.08,2206.978c-33.994,0-87.124-7.93-128.184-60.503
						c-82.368-105.464-125.034-256.57-129.824-352.334l-0.073-1.45c-1.553-30.938-3.682-73.308,39.175-101.55
						c83.13-54.778,307.378-120.305,398.843-130.864l0,0c80.479-9.272,112.847,33.323,125.801,70.713
						c31.113,89.844,45.278,312.715,39.282,413.391c-2.661,44.683-10.981,68.364-53.262,90.566
						c-39.429,20.698-166.514,63.325-268.857,71.011C1596.189,2206.392,1588.343,2206.978,1579.08,2206.978z M1781.179,1598.931
						c-5.503,0-11.352,0.364-17.573,1.082h-0.005c-87.754,10.125-305.039,74.194-381.416,124.526
						c-22.671,14.939-22.856,33.906-21.235,66.143l0.073,1.462c4.624,92.522,47.813,235.488,121.396,329.712
						c34.438,44.087,78.247,47.104,116.563,44.209c95.518-7.168,217.407-47.715,253.262-66.538
						c26.709-14.019,29.893-23.418,31.924-57.524c5.835-97.93-8.486-315.159-37.148-397.922
						C1836.35,1613.276,1815.735,1598.931,1781.179,1598.931z"/>
				</g>
				<g style="opacity:0.6;">
					<path style="fill:#FFFFFF;" d="M2631.302,1613.592c-6.261-18.164-89.218,2.184-88.435-15.034
						c0.282-6.2,11.859-43.028,26.558-87.616c-83.841-10.305-193.537-7.882-267.145-3.279
						c-43.163,114.597-67.927,217.576-62.283,229.313c6.261,13.018,118.957,9.496,128.348,12.626
						c5.498,1.833-63.579,193.169-106.787,313.378c9.888,4.285,22.025,7.188,37.403,8.381
						c44.617,3.461,152.511-1.904,228.865-11.128C2567.415,1900.664,2635.523,1625.839,2631.302,1613.592z"/>
				</g>
				<g>
					<path style="fill:#512717;" d="M2334.485,2092.432c-14.468,0-27.104-0.356-37.07-1.128
						c-58.394-4.536-79.287-32.402-92.021-59.058c-28.359-59.368-93.545-297.539-86.313-435.928
						c4.278-82.034,64.048-93.469,103.599-101.035c38.344-7.334,251.304-21.819,377.466-0.066
						c81.704,14.087,104.956,50.706,115.986,105.222c0.43,2.122,40.654,216.997-40.532,388.186
						c-23.198,48.918-55.654,76.609-99.214,84.666C2518.958,2083.901,2405.047,2092.432,2334.485,2092.432z M2427.405,1523.755
						c-90.361,0-175.596,6.68-197.207,10.815l0,0c-43.764,8.374-68.652,15.466-71.177,63.833
						c-6.636,127.063,54.443,357.939,82.466,416.597c10.244,21.445,22.685,33.599,59.023,36.421
						c50.649,3.936,198.125-4.443,268.604-17.466c30.445-5.63,52.798-25.479,70.342-62.468
						c63.472-133.831,47.92-311.448,37.466-363.118c-7.734-38.245-17.221-62.292-83.574-73.733
						C2546.453,1526.55,2485.852,1523.755,2427.405,1523.755z"/>
				</g>
			</g>
		</g>
	</g>
</g>
</svg>
