<?xml version="1.0" encoding="utf-8"?>
<!-- Generator: Adobe Illustrator 27.5.0, SVG Export Plug-In . SVG Version: 6.00 Build 0)  -->
<svg version="1.1" id="Layer_1" xmlns="http://www.w3.org/2000/svg" xmlns:xlink="http://www.w3.org/1999/xlink" x="0px" y="0px"
	 viewBox="0 0 800 800" style="enable-background:new 0 0 800 800;" xml:space="preserve">
<g>
	<rect style="fill:#231E31;" width="800" height="800"/>
	<g>
		<g>
			<g>
				<g>
					<path style="fill:#00883E;" d="M421.344,103.169c0,0-36.757,34.063-27.281,241.426c0.315,6.888,3.423,21.671,4.295,26.65
						c0.423,2.411,15.485-1.643,15.306-4.076c-0.986-13.396-13.201-137.714-5.168-194.336
						C415.237,125.326,421.344,103.169,421.344,103.169z"/>
				</g>
			</g>
			<g>
				<g>
					<path style="fill:#00883E;" d="M406.836,183.617c-13.285-34.326-38.18-54.972-38.18-54.972s11.719,12.152,27.715,41.468
						c3.406,6.243,4.583,14.066,6.946,20.465C403.989,188.566,406.363,185.645,406.836,183.617z"/>
				</g>
			</g>
			<g>
				<g>
					<path style="fill:#00883E;" d="M416.423,170.896c-4.815,7.08-9.617,16.275-11.873,26.975c0.918,1.383-1.45,17.822-0.341,19.175
						c0.891-4.744,5.653-24.989,7.604-29.726c2.548-6.184,5.059-11.367,7.37-15.675
						C418.233,171.461,417.313,171.209,416.423,170.896z"/>
				</g>
			</g>
			<path style="fill:#33A544;" d="M403.318,127.301c-4.661-1.901-7.358,1.908-8.542,4.307c2.635-6.952,6.815-23.575,0.218-21.398
				c-7.248,2.392-6.19,19.905-6.19,19.905c-0.204-9.571-6.921-15.438-9.566-15.328c-2.645,0.11-1.951,4.883,2.02,14.582
				c3.97,9.699,2.135,13.343,2.135,13.343s-6.154-5.275-8.678-15.55c-2.523-10.275-2.695-26.018-8.233-24.756
				c-5.538,1.262-3.809,15.417-3.809,15.417c-5.465-8.372-18.133-24.965-22.139-16.408c-3.404,7.272,11.879,19.003,16.55,22.365
				c-2.411-1.518-7.972-4.229-15.436-2.892c-10.121,1.813-5.735,11.417,4.863,9.248c10.598-2.168,28.985,14.602,28.985,14.602
				s-4.631,1.302-8.945-0.921c-4.314-2.223-12.985-13.069-16.292-6.89c-3.307,6.178,10.813,10.851,10.813,10.851
				s-18.751-3.371-18.88,4.303c-0.09,5.329,11.42,2.782,18.464,0.727c-8.933,4.264-6.821,12.443,0.902,6.449
				c2.591-2.011,5.484-3.415,8.288-4.396c6.775-2.369,14.573-1.523,20.56,2.014l0,0c0,0,0.268-7.705,4.758-13.907
				C399.655,136.766,409.913,129.99,403.318,127.301z"/>
			<path style="fill:#33A544;" d="M400.662,144.535c1.986-1.107,7.73,3.131,8.73,5.601c-2.101-7.117-3.166-20.496,3.284-17.958
				c7.086,2.788,4.656,20.306,4.656,20.306c0.952-9.593,8.152-15.121,10.797-14.869c2.645,0.251,1.576,5.005-3.166,14.525
				c-4.742,9.52-2.961,14.33-2.961,14.33s6.365-6.02,9.7-16.196c3.335-10.175,4.738-25.965,10.197-24.402
				c5.459,1.563,2.618,15.675,2.618,15.675c6.138-8.108,20.148-24.082,23.499-15.28c2.848,7.479-13.406,18.433-18.356,21.557
				c2.538-1.394,8.33-3.817,15.716-2.075c10.015,2.362,4.863,11.764-5.603,9.021c-10.466-2.744-30.228,13.1-30.228,13.1
				s4.545,1.555,9.048-0.445c4.503-2,14.052-12.42,16.888-6.043c2.836,6.378-11.699,10.311-11.699,10.311s19.08-2.379,18.61,5.329
				c-0.327,5.353-11.678,2.18-18.586-0.259c8.631,4.757,5.873,12.852-1.409,6.423c-2.443-2.157-5.235-3.721-7.973-4.855
				c-6.614-2.74-15.259-2.187-21.543,1.042l0,0c0,0,1.087-7.868-2.935-14.333C405.923,158.578,394.529,147.953,400.662,144.535z"/>
			<path style="fill:#33A544;" d="M448.419,119.154c-1.085-4.366-6.567-3.771-9.69-3.048c8.548-2.636,27.641-10.376,21.293-13.461
				c-6.974-3.389-23.615,8.466-23.615,8.466c9.332-6.225,10.86-14.507,9.07-16.229c-1.79-1.722-6.068,1.784-13.132,10.642
				c-7.064,8.858-13.051,10.385-13.051,10.385s2.519-7.977,11.072-16.221c8.553-8.245,24.009-18.373,19.239-21.322
				c-4.77-2.949-17.665,7.224-17.665,7.224c4.801-9.027,13.15-28.162,2.142-25.434c-9.354,2.319-11.232,20.133-11.586,25.436
				c-0.033-2.598-0.889-8.09-6.958-12.296c-8.23-5.703-14.936,3.376-6.051,9.177c8.885,5.801,3.998,28.923,3.998,28.923
				s-4.232-2.31-4.778-6.645c-0.546-4.336,4.662-17.109-3.55-15.42c-8.212,1.689-3.852,14.227-3.852,14.227
				s-8.592-14.848-16.261-10.055c-5.326,3.329,4.513,9.506,11.024,12.972c-9.896-3.34-16.64,3.292-5.802,4.712
				c3.636,0.477,6.864,1.542,9.617,2.819c6.652,3.083,10.775,8.904,11.085,15.21l0,0c0,0,7.788-4.719,16.775-5.621
				C436.732,122.693,449.955,125.333,448.419,119.154z"/>
		</g>
		<g>
			<g>
				<g>
					<path style="fill:#00883E;" d="M322.805,191.683c0,0,38.979,30.418,79.92,173.232c1.698,5.924,1.54,5.813,2.212,10.222
						c0.326,2.135-16.651,4.784-17.19,2.678c-2.967-11.596-15.944-71.692-38.524-129.193
						C333.285,208.035,322.805,191.683,322.805,191.683z"/>
				</g>
			</g>
			<g>
				<g>
					<path style="fill:#00883E;" d="M364.01,269.035c-3.224-31.723,11.703-56.468,11.703-56.468s-4.582,13.199-5.621,41.597
						c-0.221,6.047,0.891,19.223,1.585,25.106C370.306,277.817,365.226,270.556,364.01,269.035z"/>
				</g>
			</g>
			<g>
				<g>
					<path style="fill:#00883E;" d="M341.991,266.004c7.232,1.568,18.839,8.06,26.271,15.421c0.035,1.393,7.81,13.98,7.683,15.42
						c-3.212-3.304-20.047-21.767-35.665-26.739C340.907,269.619,341.477,266.569,341.991,266.004z"/>
				</g>
			</g>
			<path style="fill:#33A544;" d="M346.606,219.877c3.192-2.73,6.805-0.228,8.652,1.475c-4.692-5.131-14.149-17.922-7.88-17.738
				c6.887,0.201,12.309,15.024,12.309,15.024c-3.274-8.008,0.201-14.542,2.439-15.103c2.238-0.561,3.379,3.579,3.568,12.622
				c0.189,9.043,3.026,11.62,3.026,11.62s3.219-5.903,1.62-15.069c-1.599-9.166-7.12-22.298-2.061-22.614
				c5.059-0.316,8.715,11.88,8.715,11.88c1.532-8.308,6.095-25.229,12.504-19.102c5.447,5.207-3.04,18.729-5.714,22.677
				c1.459-1.856,5.106-5.482,11.794-6.21c9.068-0.988,8.877,8.079-0.716,8.889c-9.593,0.81-18.847,19.287-18.847,19.287
				s4.319-0.059,7.106-2.971c2.787-2.912,6.095-14.069,11.068-9.747c4.973,4.322-5.086,11.689-5.086,11.689
				s14.378-7.426,17.247-1.077c1.992,4.409-8.495,5.128-15.091,5.157c8.961,1.343,10.148,8.665,1.57,5.585
				c-2.878-1.033-5.788-1.488-8.473-1.612c-6.486-0.299-12.666,2.326-16.371,6.744l0,0c0,0-2.995-6.341-8.961-10.39
				C353.057,226.844,342.09,223.739,346.606,219.877z"/>
			<path style="fill:#33A544;" d="M339.991,240.079c-2.109-0.121-4.244,5.22-3.691,7.475c-2.188-6.212-8.508-16.836-12.089-12.538
				c-3.934,4.722,7.267,17.235,7.267,17.235c-5.844-6.99-14.3-8.588-16.189-7.429c-1.889,1.159,1.463,4.404,10.168,9.954
				c8.704,5.55,9.907,9.881,9.907,9.881s-8.079-2.28-16.056-8.845c-7.978-6.566-17.47-18.131-20.813-14.941
				c-3.343,3.19,6.357,12.948,6.357,12.948c-9.02-3.96-28.255-11.061-26.125-3.102c1.81,6.762,20.085,9.202,25.537,9.783
				c-2.685-0.139-8.408,0.124-13.129,4.155c-6.402,5.466,2.553,10.777,9.097,4.854c6.544-5.923,30.11-1.024,30.11-1.024
				s-2.648,2.85-7.159,2.966s-17.373-4.366-16.141,1.549c1.231,5.915,14.448,3.613,14.448,3.613s-15.865,5.153-11.395,10.877
				c3.105,3.975,10.096-2.6,14.08-6.99c-4.066,6.792,2.361,11.977,4.504,4.399c0.719-2.543,2.021-4.76,3.51-6.628
				c3.599-4.513,10.507-7.249,17.036-7.076l0,0c0,0-5.027-5.622-5.398-12.036C343.454,252.745,346.505,240.453,339.991,240.079z"/>
			<path style="fill:#33A544;" d="M304.297,210.563c-0.317-3.928,4.518-4.49,7.383-4.481c-8.027-0.58-26.479-3.451-21.952-7.314
				c4.974-4.243,22.51,2.609,22.51,2.609c-9.713-3.482-13.367-10.235-12.333-12.05c1.035-1.815,5.673,0.337,14.203,6.502
				c8.53,6.166,14.061,6.3,14.061,6.3s-4.411-6.301-14.035-11.654c-9.624-5.353-25.659-10.966-22.436-14.406
				c3.223-3.44,17.091,2.71,17.091,2.71c-6.652-6.749-19.197-21.415-9.05-21.235c8.622,0.153,15.282,14.953,17.09,19.398
				c-0.711-2.218-1.542-7.06,2.429-11.823c5.386-6.458,13.674-0.034,7.758,6.634c-5.915,6.668,4.814,25.4,4.814,25.4
				s2.947-2.79,2.18-6.587c-0.767-3.798-8.83-13.658-1.36-13.818c7.471-0.161,7.321,11.362,7.321,11.362s3.097-14.313,10.987-11.726
				c5.48,1.797-1.141,8.971-5.699,13.189c7.475-4.77,15.101-0.437,6.279,2.882c-2.96,1.114-5.405,2.65-7.386,4.272
				c-4.786,3.92-6.642,9.678-5.115,15.106l0,0c0,0-7.971-2.501-15.879-1.519C315.252,211.3,304.745,216.121,304.297,210.563z"/>
		</g>
		<g>
			<g>
				<g>
					<path style="fill:#00883E;" d="M482.358,213.605c0,0-37.85,23.811-74.013,141.93c-1.5,4.899,2.058,6.155,1.465,9.801
						c-0.288,1.766,9.552,3.157,10.027,1.415c2.621-9.591,17.063-66.808,37.315-105.383
						C474.143,229.004,482.358,213.605,482.358,213.605z"/>
				</g>
			</g>
			<g>
				<g>
					<path style="fill:#00883E;" d="M445.96,277.582c2.848-26.237-10.337-46.704-10.337-46.704s4.047,10.917,4.965,34.404
						c0.195,5.002-0.787,15.9-1.4,20.765C440.399,284.845,444.886,278.839,445.96,277.582z"/>
				</g>
			</g>
			<g>
				<g>
					<path style="fill:#00883E;" d="M465.41,275.075c-6.388,1.297-16.641,6.666-23.206,12.754
						c-0.031,1.152-6.898,11.563-6.786,12.754c2.837-2.733,17.708-18.003,31.504-22.115
						C466.367,278.065,465.865,275.543,465.41,275.075z"/>
				</g>
			</g>
			<path style="fill:#33A544;" d="M461.333,236.924c-2.819-2.257-6.012-0.189-7.642,1.22c4.144-4.243,12.498-14.822,6.961-14.671
				c-6.083,0.167-10.872,12.426-10.872,12.426c2.892-6.624-0.177-12.028-2.154-12.492c-1.977-0.464-2.984,2.96-3.151,10.44
				c-0.166,7.479-2.673,9.611-2.673,9.611s-2.843-4.883-1.431-12.463c1.412-7.581,6.289-18.442,1.821-18.704
				c-4.468-0.261-7.698,9.826-7.698,9.826c-1.353-6.872-5.383-20.867-11.045-15.799c-4.811,4.307,2.685,15.491,5.047,18.756
				c-1.289-1.535-4.511-4.534-10.418-5.136c-8.01-0.817-7.841,6.682,0.632,7.352c8.474,0.67,16.648,15.952,16.648,15.952
				s-3.815-0.049-6.277-2.457c-2.462-2.408-5.384-11.636-9.776-8.061c-4.393,3.575,4.493,9.668,4.493,9.668
				s-12.701-6.142-15.234-0.891c-1.76,3.647,7.504,4.242,13.331,4.266c-7.916,1.11-8.965,7.166-1.387,4.619
				c2.543-0.855,5.113-1.231,7.484-1.333c5.729-0.247,11.187,1.924,14.461,5.577l0,0c0,0,2.645-5.244,7.915-8.593
				C455.635,242.686,465.323,240.118,461.333,236.924z"/>
			<path style="fill:#33A544;" d="M467.177,253.633c1.863-0.1,3.749,4.317,3.26,6.183c1.933-5.138,7.515-13.925,10.678-10.37
				c3.475,3.906-6.419,14.255-6.419,14.255c5.162-5.782,12.631-7.103,14.3-6.145c1.669,0.959-1.292,3.643-8.981,8.233
				c-7.688,4.59-8.751,8.172-8.751,8.172s7.136-1.885,14.183-7.316c7.047-5.43,15.432-14.996,18.384-12.357
				c2.952,2.639-5.615,10.709-5.615,10.709c7.967-3.275,24.958-9.148,23.077-2.566c-1.599,5.593-17.742,7.611-22.558,8.092
				c2.371-0.115,7.426,0.102,11.597,3.436c5.655,4.521-2.255,8.913-8.035,4.014c-5.78-4.899-26.597-0.847-26.597-0.847
				s2.34,2.357,6.324,2.453c3.984,0.096,15.346-3.611,14.258,1.281c-1.088,4.892-12.762,2.988-12.762,2.988
				s14.014,4.261,10.065,8.996c-2.742,3.288-8.917-2.15-12.437-5.781c3.592,5.618-2.085,9.906-3.978,3.638
				c-0.635-2.103-1.785-3.937-3.101-5.482c-3.178-3.733-9.28-5.996-15.048-5.852l0,0c0,0,4.442-4.65,4.768-9.955
				C464.117,264.108,461.423,253.942,467.177,253.633z"/>
			<path style="fill:#33A544;" d="M498.706,229.22c0.28-3.249-3.992-3.713-6.522-3.706c7.09-0.479,23.389-2.854,19.391-6.049
				c-4.394-3.51-19.883,2.158-19.883,2.158c8.58-2.88,11.807-8.465,10.893-9.966s-5.011,0.279-12.546,5.378
				c-7.535,5.1-12.421,5.211-12.421,5.211s3.896-5.211,12.397-9.639c8.501-4.427,22.665-9.07,19.818-11.915
				c-2.846-2.845-15.096,2.242-15.096,2.242c5.876-5.583,16.957-17.712,7.994-17.563c-7.616,0.126-13.499,12.367-15.096,16.044
				c0.628-1.835,1.362-5.84-2.146-9.779c-4.757-5.341-12.078-0.028-6.853,5.487c5.225,5.515-4.253,21.008-4.253,21.008
				s-2.603-2.307-1.926-5.448c0.678-3.141,7.8-11.296,1.201-11.429c-6.599-0.133-6.467,9.397-6.467,9.397s-2.735-11.838-9.705-9.698
				c-4.84,1.486,1.008,7.42,5.035,10.909c-6.604-3.945-13.34-0.361-5.546,2.384c2.615,0.921,4.775,2.192,6.524,3.533
				c4.228,3.243,5.867,8.005,4.518,12.495l0,0c0,0,7.041-2.069,14.026-1.257C489.029,229.83,498.31,233.818,498.706,229.22z"/>
		</g>
		<g>
			<g>
				<path style="fill:#F37321;" d="M329.819,439.379c-3.524,54.062,5.136,105.958,15.67,158.926
					c10.312,51.856,36.639,142.031,55.397,141.801c19.747-0.242,57.555-104.409,60.842-118.909
					c11.376-50.173,25.72-126.086,23.005-183.693c-1.852-39.308-20.894-79.321-79.128-79.148
					C356.125,358.503,332.534,397.717,329.819,439.379z"/>
				<path style="fill:#DD691D;" d="M405.605,358.356c-15.153,0.045-27.852,3.784-38.293,10.104
					c58.012,6.843,69.671,26.724,74.743,119.14c3.092,56.34-27.518,263.474-58.927,232.8c6.173,12.117,12.287,19.772,17.757,19.706
					c19.747-0.242,57.555-104.409,60.842-118.909c11.376-50.173,25.72-126.086,23.005-183.693
					C482.881,398.196,463.839,358.183,405.605,358.356z"/>
			</g>
			<path style="fill:#F79131;" d="M380.72,401.449c-39.45-3.318-43.305,53.358-5.547,55.841
				C409.29,459.532,419.881,404.743,380.72,401.449z"/>
			<g>
				<path style="fill:#DD691D;" d="M350.143,420.329c7.916,1.22,15.836,2.413,23.839,3.259c4.003,0.431,7.995,0.842,12.04,1.098
					c4.018,0.36,8.048,0.432,12.075,0.6c-15.374-3.962-30.436-7.985-45.52-12.141l-16.498-4.563c-1.02,2.833-1.913,5.73-2.689,8.679
					C338.962,418.324,344.529,419.404,350.143,420.329z"/>
				<path style="fill:#C96019;" d="M464.468,453.613c6.893-0.943,13.719-2.216,20.572-3.557c-0.022-3.313-0.107-6.562-0.228-9.776
					c-0.941,0.287-1.879,0.575-2.827,0.855c-6.433,1.966-13.02,3.65-19.596,5.459c-13.173,3.555-26.567,6.871-39.773,10.962
					C436.657,456.83,450.59,455.606,464.468,453.613z"/>
				<path style="fill:#C96019;" d="M462.534,516.109c-14.082,3.796-28.417,7.201-42.653,11.295
					c15.044-0.485,29.962-1.852,44.821-3.957c5.13-0.779,10.249-1.681,15.358-2.651c0.428-3.304,0.822-6.607,1.205-9.911
					C475.061,512.673,468.841,514.444,462.534,516.109z"/>
				<path style="fill:#DD691D;" d="M329.769,479.792c6.879,1.535,13.74,3.098,20.723,4.315c6.959,1.269,13.981,2.354,21.052,3.18
					c3.529,0.435,7.079,0.779,10.651,1.038c3.55,0.352,7.119,0.377,10.68,0.55c-13.515-3.74-26.655-7.588-39.774-11.632
					c-6.522-2.079-13.092-4.008-19.555-6.169c-1.452-0.476-2.912-0.946-4.37-1.418c0.044,3.34,0.01,6.691,0.131,10.018
					C329.461,479.713,329.613,479.756,329.769,479.792z"/>
				<path style="fill:#C96019;" d="M459.752,584.55c-7.813,2.181-15.746,4.055-23.724,5.954c-8.007,1.82-16.053,3.549-24.241,5.222
					c8.395,0.284,16.863,0.067,25.256-0.583c8.421-0.569,16.772-1.686,25.091-2.977c2.025-0.356,4.048-0.74,6.07-1.12
					c0.624-3.079,1.243-6.228,1.86-9.399C466.645,582.655,463.224,583.659,459.752,584.55z"/>
				<path style="fill:#DD691D;" d="M349.718,553.386c7.383,1.193,14.763,2.268,22.233,2.745c7.47,0.635,14.926,0.701,22.346,0.534
					c-7.204-1.545-14.349-3.073-21.324-4.747c-7.015-1.67-13.911-3.531-20.708-5.508c-5.76-1.772-11.453-3.598-17.009-5.626
					c0.486,3.273,1.029,6.545,1.556,9.818C341.085,551.645,345.374,552.624,349.718,553.386z"/>
				<path style="fill:#DD691D;" d="M354.164,624.875c5.17,0.414,10.358,0.62,15.533,0.769c5.152,0.207,10.419-0.021,15.562-0.076
					c5.141-0.187,10.24-0.622,15.373-1.06l-7.558-1.182c-2.512-0.367-5.07-0.637-7.543-1.082c-4.972-0.834-9.885-1.434-14.787-2.374
					c-4.92-0.775-9.793-1.644-14.613-2.63c-2.302-0.379-4.579-0.827-6.844-1.297c0.652,2.839,1.329,5.721,2.041,8.661
					C352.274,624.689,353.215,624.809,354.164,624.875z"/>
				<path style="fill:#DD691D;" d="M376.185,692.542c-1.767-0.415-3.509-0.846-5.254-1.276c0.877,2.443,1.76,4.843,2.65,7.174
					c9.689,0.461,19.389,0.598,29.073,0.19L376.185,692.542z"/>
				<path style="fill:#C96019;" d="M429.163,659.336c-7.6,1.483-15.22,3.031-22.891,4.658c8.024,0.294,16.056,0.269,24.049-0.051
					c5.617-0.158,11.198-0.549,16.773-0.981c1.056-2.668,2.085-5.303,3.059-7.852L429.163,659.336z"/>
			</g>
		</g>
	</g>
</g>
</svg>
