<svg xmlns="http://www.w3.org/2000/svg" version="1.0" preserveAspectRatio="xMidYMid meet" viewBox="73.44 82.34 1177.18 365.51">
<metadata>
Created by potrace 1.10, written by Peter Selinger 2001-2011
</metadata>
<g transform="translate(0.000000,960.000000) scale(0.100000,-0.100000)" fill="#CAC4E3" stroke="none">
<path d="M3010 8774 c-348 -28 -606 -70 -795 -129 -172 -54 -187 -60 -315 -123 -237 -118 -373 -251 -416 -407 -19 -68 -17 -119 5 -206 11 -41 29 -112 41 -159 12 -47 27 -110 35 -140 7 -30 21 -86 30 -125 9 -38 22 -95 30 -125 8 -30 20 -82 28 -115 57 -236 57 -238 15 -254 -104 -41 -278 -117 -312 -136 -22 -12 -57 -31 -76 -42 -101 -54 -252 -167 -316 -234 -97 -102 -145 -182 -175 -291 -23 -81 -23 -122 -4 -208 28 -122 76 -205 180 -311 36 -37 65 -74 65 -82 0 -9 -63 -79 -140 -155 -77 -77 -144 -152 -150 -167 -12 -33 -5 -62 23 -92 23 -26 58 -29 165 -14 37 6 130 17 207 26 149 17 321 37 472 55 67 8 101 9 125 1 94 -32 197 -63 233 -71 136 -31 272 -59 355 -73 52 -9 127 -21 165 -28 77 -13 157 -20 495 -40 185 -10 267 -10 455 0 310 17 416 26 505 40 271 43 314 51 470 87 124 29 324 88 412 123 235 93 386 173 526 279 76 59 222 205 222 223 0 6 9 22 20 37 41 56 70 159 70 252 0 166 -65 297 -221 444 -43 41 -79 79 -79 85 0 5 11 32 25 59 56 112 69 175 69 347 0 204 -18 274 -115 441 -77 131 -165 217 -317 308 l-64 39 7 67 c12 123 -36 250 -134 353 -108 114 -266 209 -461 280 -249 89 -412 125 -740 163 -121 14 -528 26 -620 18z m675 -220 c188 -23 275 -40 470 -91 86 -23 277 -99 336 -134 27 -16 52 -29 56 -29 8 0 83 -59 126 -99 55 -52 77 -85 92 -141 12 -47 11 -55 -26 -177 -51 -166 -78 -257 -114 -393 -9 -36 -23 -85 -30 -110 -7 -25 -20 -71 -29 -103 -15 -53 -23 -85 -59 -212 -8 -27 -22 -77 -31 -110 -9 -33 -23 -82 -31 -110 -8 -27 -21 -75 -29 -105 -36 -139 -80 -291 -103 -355 -14 -38 -28 -86 -32 -105 -15 -71 -58 -113 -171 -167 -135 -65 -229 -92 -480 -137 -47 -8 -155 -18 -241 -22 -147 -6 -157 -6 -167 12 -7 13 -9 273 -6 767 3 512 1 754 -6 767 -9 17 -21 20 -88 20 -47 0 -83 -5 -90 -12 -9 -9 -12 -196 -12 -779 0 -422 -4 -770 -9 -773 -15 -10 -231 10 -244 23 -9 9 -13 199 -17 789 l-5 777 -25 2 c-80 9 -325 65 -428 100 -40 14 -77 22 -80 18 -4 -4 -5 -332 -3 -729 2 -398 0 -733 -4 -745 -16 -52 -66 -13 -113 89 -40 86 -72 204 -137 500 -35 162 -48 217 -61 259 -8 25 -14 53 -14 64 0 11 -6 43 -14 71 -15 52 -22 81 -77 316 -17 74 -49 205 -71 290 -50 192 -58 286 -30 333 26 41 117 131 162 159 53 33 131 75 180 96 146 63 161 64 171 14 9 -43 14 -48 42 -35 67 31 316 93 432 108 57 8 85 28 85 61 0 34 27 43 144 51 114 7 107 9 121 -50 l6 -28 80 5 c87 5 109 16 109 51 0 13 6 26 13 29 21 9 325 -4 452 -20z m1285 -890 c195 -127 300 -322 300 -559 0 -191 -57 -324 -194 -460 -60 -59 -101 -90 -156 -116 -99 -48 -101 -49 -200 -65 -162 -26 -186 -18 -174 56 9 56 34 80 82 80 40 0 125 19 182 41 155 59 290 232 310 398 25 198 -53 373 -220 496 -47 35 -53 49 -39 93 17 53 28 72 42 72 7 0 37 -16 67 -36z m-65 -411 c38 -78 45 -176 17 -248 -13 -32 -27 -51 -38 -53 -11 -1 -55 12 -99 31 -61 25 -81 38 -83 54 -4 25 74 301 90 320 17 21 80 -37 113 -104z"/>
<path d="M2820 8404 c-352 -50 -569 -111 -714 -201 -50 -31 -124 -107 -137 -140 -14 -36 -11 -91 6 -127 17 -36 80 -101 117 -121 219 -122 479 -189 853 -220 355 -28 810 11 1066 93 18 6 63 21 99 33 165 53 303 154 329 238 38 130 -118 269 -394 351 -152 45 -201 54 -450 91 -161 23 -622 25 -775 3z m29 -274 c81 -41 105 -134 52 -207 -89 -123 -270 -42 -247 111 8 48 32 77 86 100 47 20 64 20 109 -4z m409 0 c33 -15 47 -29 62 -62 23 -52 25 -75 6 -119 -46 -109 -197 -113 -252 -7 -34 66 -5 151 63 187 48 25 67 25 121 1z m407 0 c52 -25 75 -64 75 -129 0 -42 -5 -56 -30 -85 -62 -70 -151 -69 -209 2 -26 30 -31 45 -31 88 0 62 24 98 84 125 52 23 61 23 111 -1z"/>
<path d="M6255 7801 c-22 -10 -56 -36 -76 -58 -55 -61 -61 -117 -57 -483 3 -201 8 -317 16 -341 16 -47 71 -103 125 -127 23 -10 80 -22 127 -26 401 -32 389 -30 412 -54 22 -22 23 -30 26 -230 2 -188 1 -210 -16 -242 l-19 -35 -179 0 -178 0 3 101 c3 112 -10 157 -57 208 -52 55 -191 93 -241 66 -23 -12 -23 -12 -19 -258 3 -236 4 -249 27 -295 26 -53 66 -88 126 -108 60 -21 650 -19 719 1 65 20 132 93 141 153 4 23 5 202 3 397 -3 345 -4 356 -25 390 -24 38 -64 77 -103 99 -27 15 -328 50 -442 50 -57 1 -71 5 -97 27 l-31 26 2 227 3 226 199 0 200 0 -3 -101 c-2 -87 1 -108 20 -148 38 -81 116 -126 221 -126 81 0 81 -2 76 269 -4 197 -8 243 -22 276 -23 51 -51 82 -101 108 -39 21 -53 22 -390 24 -319 2 -354 0 -390 -16z"/>
<path d="M7462 7808 c-9 -9 -12 -231 -12 -939 0 -510 3 -934 6 -943 5 -12 21 -16 66 -16 79 0 128 15 171 54 69 62 67 50 67 503 0 227 4 414 9 422 13 20 38 -1 50 -43 10 -32 23 -68 61 -166 12 -30 26 -68 30 -85 8 -29 16 -50 60 -165 12 -30 32 -86 45 -125 64 -187 85 -233 126 -279 70 -81 150 -116 262 -116 50 0 66 4 71 16 3 9 6 433 6 943 0 708 -3 930 -12 939 -18 18 -106 15 -162 -5 -65 -24 -120 -86 -137 -155 -9 -38 -11 -153 -8 -432 4 -371 3 -381 -15 -381 -12 0 -22 10 -27 25 -4 14 -17 50 -29 80 -12 30 -32 87 -45 125 -13 39 -34 95 -45 125 -12 30 -25 66 -30 80 -5 14 -18 50 -30 80 -12 30 -25 66 -30 80 -26 74 -70 189 -85 217 -28 56 -118 129 -187 152 -68 23 -157 28 -176 9z"/>
<path d="M9061 7802 c-89 -34 -161 -139 -161 -235 0 -21 -6 -95 -14 -165 -8 -70 -22 -203 -31 -297 -9 -93 -22 -233 -30 -310 -8 -77 -21 -212 -30 -300 -9 -88 -22 -221 -30 -295 -21 -200 -24 -255 -13 -273 11 -21 100 -23 161 -5 51 15 129 92 145 144 7 21 17 93 23 159 6 66 17 135 25 153 l13 32 150 0 c138 0 153 -2 171 -20 11 -11 20 -26 20 -32 2 -84 23 -254 36 -292 36 -104 135 -163 259 -154 l50 3 -2 95 c-2 52 -9 159 -18 238 -34 319 -65 631 -90 887 -8 88 -20 205 -26 260 -7 55 -15 132 -18 170 -12 126 -69 205 -173 239 -72 23 -354 22 -417 -2z m266 -304 c16 -19 23 -52 37 -198 9 -96 21 -215 27 -265 20 -185 27 -309 18 -327 -9 -16 -25 -18 -134 -18 -142 0 -145 2 -138 79 6 84 34 354 49 486 8 72 14 146 14 165 0 19 9 50 20 68 16 26 26 32 53 32 22 0 40 -8 54 -22z"/>
<path d="M10212 7801 c-53 -21 -97 -61 -122 -112 -19 -37 -20 -64 -20 -829 0 -759 1 -792 19 -828 11 -20 34 -51 53 -68 60 -55 89 -59 448 -59 292 0 330 2 370 18 55 23 86 50 113 102 20 37 22 59 25 265 2 124 0 241 -5 260 -9 33 -12 35 -55 38 -54 4 -151 -28 -185 -60 -51 -48 -65 -84 -72 -187 -9 -144 -6 -141 -198 -141 -136 0 -155 2 -172 19 -17 17 -19 44 -26 327 -9 351 1 928 16 955 9 17 24 19 179 19 203 0 195 5 203 -139 5 -85 9 -99 39 -143 41 -60 96 -89 183 -95 60 -5 64 -4 80 21 17 25 18 48 11 263 -7 256 -12 278 -73 334 -61 56 -84 59 -441 58 -287 0 -332 -2 -370 -18z"/>
<path d="M11395 7808 c-3 -7 -4 -436 -3 -953 l3 -940 60 -3 c91 -5 138 13 189 69 27 31 46 63 51 86 4 21 6 179 6 351 l-2 313 22 -3 c13 -2 30 -19 43 -43 11 -22 33 -60 47 -85 14 -25 40 -71 58 -102 132 -243 148 -273 182 -330 16 -27 29 -51 29 -54 0 -3 15 -24 33 -48 82 -110 220 -167 375 -157 30 2 11 51 -74 192 -19 31 -34 59 -34 63 0 3 -20 40 -45 82 -25 41 -45 77 -45 79 0 2 -13 26 -29 53 -16 27 -42 74 -59 103 -16 30 -44 80 -62 113 -17 32 -45 81 -61 108 -16 27 -29 51 -29 53 0 2 -13 27 -30 55 -16 28 -30 63 -30 77 0 14 14 48 30 75 17 26 30 50 30 53 0 2 12 21 26 42 14 21 30 47 35 58 5 11 18 34 29 50 10 17 25 42 33 57 8 15 88 149 177 298 95 158 160 277 156 285 -8 21 -107 19 -176 -3 -75 -24 -127 -54 -176 -99 -35 -33 -104 -125 -104 -139 0 -2 -12 -23 -27 -47 -15 -23 -32 -51 -38 -62 -6 -11 -64 -109 -129 -217 -86 -146 -122 -198 -136 -198 -18 0 -19 14 -22 319 l-3 319 -30 44 c-43 61 -118 98 -202 98 -42 0 -65 -4 -68 -12z"/>
</g>
</svg>